<?xml version="1.0" encoding="UTF-8" standalone="no"?>
<!DOCTYPE svg PUBLIC "-//W3C//DTD SVG 1.1//EN"
 "http://www.w3.org/Graphics/SVG/1.1/DTD/svg11.dtd">
<!-- Generated by graphviz version 2.47.0 (20210316.0004)
 -->
<!-- Title: dependencies Pages: 1 -->
<svg width="504pt" height="211pt"
 viewBox="0.00 0.00 504.00 211.00" xmlns="http://www.w3.org/2000/svg" xmlns:xlink="http://www.w3.org/1999/xlink">
<g id="graph0" class="graph" transform="scale(1 1) rotate(0) translate(4 207)">
<title>dependencies</title>
<polygon fill="white" stroke="transparent" points="-4,4 -4,-207 500,-207 500,4 -4,4"/>
<text text-anchor="start" x="227.01" y="-42.4" font-family="sans-serif" font-weight="bold" font-size="14.00">Legend</text>
<polygon fill="#ffffb3" stroke="transparent" points="14,-10 14,-30 34,-30 34,-10 14,-10"/>
<text text-anchor="start" x="37.63" y="-15.4" font-family="sans-serif" font-size="14.00"> &#160;Declarations</text>
<polygon fill="#8dd3c7" stroke="transparent" points="127,-10 127,-30 147,-30 147,-10 127,-10"/>
<text text-anchor="start" x="150.73" y="-15.4" font-family="sans-serif" font-size="14.00"> &#160;Module</text>
<polygon fill="#80b1d3" stroke="transparent" points="213,-10 213,-30 233,-30 233,-10 213,-10"/>
<text text-anchor="start" x="236.78" y="-15.4" font-family="sans-serif" font-size="14.00"> &#160;Bootstrap</text>
<polygon fill="#fdb462" stroke="transparent" points="310,-10 310,-30 330,-30 330,-10 310,-10"/>
<text text-anchor="start" x="333.67" y="-15.4" font-family="sans-serif" font-size="14.00"> &#160;Providers</text>
<polygon fill="#fb8072" stroke="transparent" points="406,-10 406,-30 426,-30 426,-10 406,-10"/>
<text text-anchor="start" x="429.73" y="-15.4" font-family="sans-serif" font-size="14.00"> &#160;Exports</text>
<g id="clust1" class="cluster">
<title>cluster_FinanceModule</title>
<polygon fill="none" stroke="black" stroke-dasharray="1,5" points="24.5,-70 24.5,-195 471.5,-195 471.5,-70 24.5,-70"/>
</g>
<g id="clust4" class="cluster">
<title>cluster_FinanceModule_imports</title>
<polygon fill="none" stroke="black" points="182.5,-78 182.5,-130 463.5,-130 463.5,-78 182.5,-78"/>
</g>
<g id="clust2" class="cluster">
<title>cluster_FinanceModule_declarations</title>
<polygon fill="none" stroke="black" points="32.5,-78 32.5,-130 174.5,-130 174.5,-78 32.5,-78"/>
</g>
<!-- FinanceComponent -->
<g id="node1" class="node">
<title>FinanceComponent</title>
<polygon fill="#ffffb3" stroke="black" points="166.15,-122 40.85,-122 40.85,-86 166.15,-86 166.15,-122"/>
<text text-anchor="middle" x="103.5" y="-99.8" font-family="Times,serif" font-size="14.00">FinanceComponent</text>
</g>
<!-- FinanceModule -->
<g id="node2" class="node">
<title>FinanceModule</title>
<polygon fill="#8dd3c7" stroke="black" points="291.37,-187 288.37,-191 267.37,-191 264.37,-187 187.63,-187 187.63,-151 291.37,-151 291.37,-187"/>
<text text-anchor="middle" x="239.5" y="-164.8" font-family="Times,serif" font-size="14.00">FinanceModule</text>
</g>
<!-- FinanceComponent&#45;&gt;FinanceModule -->
<g id="edge1" class="edge">
<title>FinanceComponent&#45;&gt;FinanceModule</title>
<path fill="none" stroke="black" d="M103.5,-122.11C103.5,-141.34 103.5,-169 103.5,-169 103.5,-169 177.31,-169 177.31,-169"/>
<polygon fill="black" stroke="black" points="177.31,-172.5 187.31,-169 177.31,-165.5 177.31,-172.5"/>
</g>
<!-- FinanceRoutingModule -->
<g id="node3" class="node">
<title>FinanceRoutingModule</title>
<polygon fill="#8dd3c7" stroke="black" points="455.98,-122 452.98,-126 431.98,-126 428.98,-122 307.02,-122 307.02,-86 455.98,-86 455.98,-122"/>
<text text-anchor="middle" x="381.5" y="-99.8" font-family="Times,serif" font-size="14.00">FinanceRoutingModule</text>
</g>
<!-- FinanceRoutingModule&#45;&gt;FinanceModule -->
<g id="edge2" class="edge">
<title>FinanceRoutingModule&#45;&gt;FinanceModule</title>
<path fill="none" stroke="black" d="M381.5,-122.11C381.5,-141.34 381.5,-169 381.5,-169 381.5,-169 301.57,-169 301.57,-169"/>
<polygon fill="black" stroke="black" points="301.57,-165.5 291.57,-169 301.57,-172.5 301.57,-165.5"/>
</g>
<!-- SharedModule -->
<g id="node4" class="node">
<title>SharedModule</title>
<polygon fill="#8dd3c7" stroke="black" points="288.92,-122 285.92,-126 264.92,-126 261.92,-122 190.08,-122 190.08,-86 288.92,-86 288.92,-122"/>
<text text-anchor="middle" x="239.5" y="-99.8" font-family="Times,serif" font-size="14.00">SharedModule</text>
</g>
<!-- SharedModule&#45;&gt;FinanceModule -->
<g id="edge3" class="edge">
<title>SharedModule&#45;&gt;FinanceModule</title>
<path fill="none" stroke="black" d="M239.5,-122.11C239.5,-122.11 239.5,-140.99 239.5,-140.99"/>
<polygon fill="black" stroke="black" points="236,-140.99 239.5,-150.99 243,-140.99 236,-140.99"/>
</g>
</g>
</svg>
