<?xml version="1.0" encoding="UTF-8" standalone="no"?>
<!DOCTYPE svg PUBLIC "-//W3C//DTD SVG 1.1//EN"
 "http://www.w3.org/Graphics/SVG/1.1/DTD/svg11.dtd">
<!-- Generated by graphviz version 2.47.0 (20210316.0004)
 -->
<!-- Title: dependencies Pages: 1 -->
<svg width="579pt" height="284pt"
 viewBox="0.00 0.00 579.00 284.00" xmlns="http://www.w3.org/2000/svg" xmlns:xlink="http://www.w3.org/1999/xlink">
<g id="graph0" class="graph" transform="scale(1 1) rotate(0) translate(4 280)">
<title>dependencies</title>
<polygon fill="white" stroke="transparent" points="-4,4 -4,-280 575,-280 575,4 -4,4"/>
<text text-anchor="start" x="264.51" y="-42.4" font-family="sans-serif" font-weight="bold" font-size="14.00">Legend</text>
<polygon fill="#ffffb3" stroke="transparent" points="51.5,-10 51.5,-30 71.5,-30 71.5,-10 51.5,-10"/>
<text text-anchor="start" x="75.13" y="-15.4" font-family="sans-serif" font-size="14.00"> &#160;Declarations</text>
<polygon fill="#8dd3c7" stroke="transparent" points="164.5,-10 164.5,-30 184.5,-30 184.5,-10 164.5,-10"/>
<text text-anchor="start" x="188.23" y="-15.4" font-family="sans-serif" font-size="14.00"> &#160;Module</text>
<polygon fill="#80b1d3" stroke="transparent" points="250.5,-10 250.5,-30 270.5,-30 270.5,-10 250.5,-10"/>
<text text-anchor="start" x="274.28" y="-15.4" font-family="sans-serif" font-size="14.00"> &#160;Bootstrap</text>
<polygon fill="#fdb462" stroke="transparent" points="347.5,-10 347.5,-30 367.5,-30 367.5,-10 347.5,-10"/>
<text text-anchor="start" x="371.17" y="-15.4" font-family="sans-serif" font-size="14.00"> &#160;Providers</text>
<polygon fill="#fb8072" stroke="transparent" points="443.5,-10 443.5,-30 463.5,-30 463.5,-10 443.5,-10"/>
<text text-anchor="start" x="467.23" y="-15.4" font-family="sans-serif" font-size="14.00"> &#160;Exports</text>
<g id="clust1" class="cluster">
<title>cluster_HomeModule</title>
<polygon fill="none" stroke="black" stroke-dasharray="1,5" points="8,-70 8,-268 563,-268 563,-70 8,-70"/>
</g>
<g id="clust2" class="cluster">
<title>cluster_HomeModule_declarations</title>
<polygon fill="none" stroke="black" points="295,-78 295,-130 555,-130 555,-78 295,-78"/>
</g>
<g id="clust5" class="cluster">
<title>cluster_HomeModule_imports</title>
<polygon fill="none" stroke="black" points="16,-78 16,-130 287,-130 287,-78 16,-78"/>
</g>
<g id="clust6" class="cluster">
<title>cluster_HomeModule_exports</title>
<polygon fill="none" stroke="black" points="220,-208 220,-260 350,-260 350,-208 220,-208"/>
</g>
<!-- AlertComponent -->
<g id="node1" class="node">
<title>AlertComponent</title>
<polygon fill="#ffffb3" stroke="black" points="547.1,-122 436.9,-122 436.9,-86 547.1,-86 547.1,-122"/>
<text text-anchor="middle" x="492" y="-99.8" font-family="Times,serif" font-size="14.00">AlertComponent</text>
</g>
<!-- HomeModule -->
<g id="node3" class="node">
<title>HomeModule</title>
<polygon fill="#8dd3c7" stroke="black" points="331.76,-187 328.76,-191 307.76,-191 304.76,-187 238.24,-187 238.24,-151 331.76,-151 331.76,-187"/>
<text text-anchor="middle" x="285" y="-164.8" font-family="Times,serif" font-size="14.00">HomeModule</text>
</g>
<!-- AlertComponent&#45;&gt;HomeModule -->
<g id="edge1" class="edge">
<title>AlertComponent&#45;&gt;HomeModule</title>
<path fill="none" stroke="black" d="M492,-122.11C492,-141.34 492,-169 492,-169 492,-169 341.97,-169 341.97,-169"/>
<polygon fill="black" stroke="black" points="341.97,-165.5 331.97,-169 341.97,-172.5 341.97,-165.5"/>
</g>
<!-- HomeComponent -->
<g id="node2" class="node">
<title>HomeComponent</title>
<polygon fill="#ffffb3" stroke="black" points="418.55,-122 303.45,-122 303.45,-86 418.55,-86 418.55,-122"/>
<text text-anchor="middle" x="361" y="-99.8" font-family="Times,serif" font-size="14.00">HomeComponent</text>
</g>
<!-- HomeComponent&#45;&gt;HomeModule -->
<g id="edge2" class="edge">
<title>HomeComponent&#45;&gt;HomeModule</title>
<path fill="none" stroke="black" d="M317.55,-122.11C317.55,-122.11 317.55,-140.99 317.55,-140.99"/>
<polygon fill="black" stroke="black" points="314.05,-140.99 317.55,-150.99 321.05,-140.99 314.05,-140.99"/>
</g>
<!-- AlertComponent  -->
<g id="node6" class="node">
<title>AlertComponent </title>
<polygon fill="#fb8072" stroke="black" points="341.6,-252 228.4,-252 228.4,-216 341.6,-216 341.6,-252"/>
<text text-anchor="middle" x="285" y="-229.8" font-family="Times,serif" font-size="14.00">AlertComponent </text>
</g>
<!-- HomeModule&#45;&gt;AlertComponent  -->
<g id="edge5" class="edge">
<title>HomeModule&#45;&gt;AlertComponent </title>
<path fill="none" stroke="black" stroke-dasharray="5,2" d="M285,-187.11C285,-187.11 285,-205.99 285,-205.99"/>
<polygon fill="black" stroke="black" points="281.5,-205.99 285,-215.99 288.5,-205.99 281.5,-205.99"/>
</g>
<!-- HomeRoutingModule -->
<g id="node4" class="node">
<title>HomeRoutingModule</title>
<polygon fill="#8dd3c7" stroke="black" points="279.38,-122 276.38,-126 255.38,-126 252.38,-122 140.62,-122 140.62,-86 279.38,-86 279.38,-122"/>
<text text-anchor="middle" x="210" y="-99.8" font-family="Times,serif" font-size="14.00">HomeRoutingModule</text>
</g>
<!-- HomeRoutingModule&#45;&gt;HomeModule -->
<g id="edge3" class="edge">
<title>HomeRoutingModule&#45;&gt;HomeModule</title>
<path fill="none" stroke="black" d="M258.78,-122.11C258.78,-122.11 258.78,-140.99 258.78,-140.99"/>
<polygon fill="black" stroke="black" points="255.28,-140.99 258.78,-150.99 262.28,-140.99 255.28,-140.99"/>
</g>
<!-- SharedModule -->
<g id="node5" class="node">
<title>SharedModule</title>
<polygon fill="#8dd3c7" stroke="black" points="122.42,-122 119.42,-126 98.42,-126 95.42,-122 23.58,-122 23.58,-86 122.42,-86 122.42,-122"/>
<text text-anchor="middle" x="73" y="-99.8" font-family="Times,serif" font-size="14.00">SharedModule</text>
</g>
<!-- SharedModule&#45;&gt;HomeModule -->
<g id="edge4" class="edge">
<title>SharedModule&#45;&gt;HomeModule</title>
<path fill="none" stroke="black" d="M73,-122.11C73,-141.34 73,-169 73,-169 73,-169 228.21,-169 228.21,-169"/>
<polygon fill="black" stroke="black" points="228.21,-172.5 238.21,-169 228.21,-165.5 228.21,-172.5"/>
</g>
</g>
</svg>
