<?xml version="1.0" encoding="UTF-8" standalone="no"?>
<!DOCTYPE svg PUBLIC "-//W3C//DTD SVG 1.1//EN"
 "http://www.w3.org/Graphics/SVG/1.1/DTD/svg11.dtd">
<!-- Generated by graphviz version 2.47.0 (20210316.0004)
 -->
<!-- Title: dependencies Pages: 1 -->
<svg width="1042pt" height="211pt"
 viewBox="0.00 0.00 1042.00 211.00" xmlns="http://www.w3.org/2000/svg" xmlns:xlink="http://www.w3.org/1999/xlink">
<g id="graph0" class="graph" transform="scale(1 1) rotate(0) translate(4 207)">
<title>dependencies</title>
<polygon fill="white" stroke="transparent" points="-4,4 -4,-207 1038,-207 1038,4 -4,4"/>
<text text-anchor="start" x="496.01" y="-42.4" font-family="sans-serif" font-weight="bold" font-size="14.00">Legend</text>
<polygon fill="#ffffb3" stroke="transparent" points="283,-10 283,-30 303,-30 303,-10 283,-10"/>
<text text-anchor="start" x="306.63" y="-15.4" font-family="sans-serif" font-size="14.00"> &#160;Declarations</text>
<polygon fill="#8dd3c7" stroke="transparent" points="396,-10 396,-30 416,-30 416,-10 396,-10"/>
<text text-anchor="start" x="419.73" y="-15.4" font-family="sans-serif" font-size="14.00"> &#160;Module</text>
<polygon fill="#80b1d3" stroke="transparent" points="482,-10 482,-30 502,-30 502,-10 482,-10"/>
<text text-anchor="start" x="505.78" y="-15.4" font-family="sans-serif" font-size="14.00"> &#160;Bootstrap</text>
<polygon fill="#fdb462" stroke="transparent" points="579,-10 579,-30 599,-30 599,-10 579,-10"/>
<text text-anchor="start" x="602.67" y="-15.4" font-family="sans-serif" font-size="14.00"> &#160;Providers</text>
<polygon fill="#fb8072" stroke="transparent" points="675,-10 675,-30 695,-30 695,-10 675,-10"/>
<text text-anchor="start" x="698.73" y="-15.4" font-family="sans-serif" font-size="14.00"> &#160;Exports</text>
<g id="clust1" class="cluster">
<title>cluster_ListModule</title>
<polygon fill="none" stroke="black" stroke-dasharray="1,5" points="8,-70 8,-195 1026,-195 1026,-70 8,-70"/>
</g>
<g id="clust2" class="cluster">
<title>cluster_ListModule_declarations</title>
<polygon fill="none" stroke="black" points="282,-78 282,-130 1018,-130 1018,-78 282,-78"/>
</g>
<g id="clust8" class="cluster">
<title>cluster_ListModule_imports</title>
<polygon fill="none" stroke="black" points="16,-78 16,-130 274,-130 274,-78 16,-78"/>
</g>
<!-- ListComponent -->
<g id="node1" class="node">
<title>ListComponent</title>
<polygon fill="#ffffb3" stroke="black" points="1009.61,-122 906.39,-122 906.39,-86 1009.61,-86 1009.61,-122"/>
<text text-anchor="middle" x="958" y="-99.8" font-family="Times,serif" font-size="14.00">ListComponent</text>
</g>
<!-- ListModule -->
<g id="node6" class="node">
<title>ListModule</title>
<polygon fill="#8dd3c7" stroke="black" points="545.83,-187 542.83,-191 521.83,-191 518.83,-187 464.17,-187 464.17,-151 545.83,-151 545.83,-187"/>
<text text-anchor="middle" x="505" y="-164.8" font-family="Times,serif" font-size="14.00">ListModule</text>
</g>
<!-- ListComponent&#45;&gt;ListModule -->
<g id="edge1" class="edge">
<title>ListComponent&#45;&gt;ListModule</title>
<path fill="none" stroke="black" d="M958,-122.29C958,-144.21 958,-178 958,-178 958,-178 556,-178 556,-178"/>
<polygon fill="black" stroke="black" points="556,-174.5 546,-178 556,-181.5 556,-174.5"/>
</g>
<!-- ListEditComponent -->
<g id="node2" class="node">
<title>ListEditComponent</title>
<polygon fill="#ffffb3" stroke="black" points="888.45,-122 761.55,-122 761.55,-86 888.45,-86 888.45,-122"/>
<text text-anchor="middle" x="825" y="-99.8" font-family="Times,serif" font-size="14.00">ListEditComponent</text>
</g>
<!-- ListEditComponent&#45;&gt;ListModule -->
<g id="edge2" class="edge">
<title>ListEditComponent&#45;&gt;ListModule</title>
<path fill="none" stroke="black" d="M825,-122.11C825,-141.34 825,-169 825,-169 825,-169 555.85,-169 555.85,-169"/>
<polygon fill="black" stroke="black" points="555.85,-165.5 545.85,-169 555.85,-172.5 555.85,-165.5"/>
</g>
<!-- ListHomeComponent -->
<g id="node3" class="node">
<title>ListHomeComponent</title>
<polygon fill="#ffffb3" stroke="black" points="743.82,-122 606.18,-122 606.18,-86 743.82,-86 743.82,-122"/>
<text text-anchor="middle" x="675" y="-99.8" font-family="Times,serif" font-size="14.00">ListHomeComponent</text>
</g>
<!-- ListHomeComponent&#45;&gt;ListModule -->
<g id="edge3" class="edge">
<title>ListHomeComponent&#45;&gt;ListModule</title>
<path fill="none" stroke="black" d="M675,-122.03C675,-138.4 675,-160 675,-160 675,-160 555.72,-160 555.72,-160"/>
<polygon fill="black" stroke="black" points="555.72,-156.5 545.72,-160 555.72,-163.5 555.72,-156.5"/>
</g>
<!-- ListItemDialogComponent -->
<g id="node4" class="node">
<title>ListItemDialogComponent</title>
<polygon fill="#ffffb3" stroke="black" points="588.37,-122 421.63,-122 421.63,-86 588.37,-86 588.37,-122"/>
<text text-anchor="middle" x="505" y="-99.8" font-family="Times,serif" font-size="14.00">ListItemDialogComponent</text>
</g>
<!-- ListItemDialogComponent&#45;&gt;ListModule -->
<g id="edge4" class="edge">
<title>ListItemDialogComponent&#45;&gt;ListModule</title>
<path fill="none" stroke="black" d="M505,-122.11C505,-122.11 505,-140.99 505,-140.99"/>
<polygon fill="black" stroke="black" points="501.5,-140.99 505,-150.99 508.5,-140.99 501.5,-140.99"/>
</g>
<!-- ShareComponent -->
<g id="node5" class="node">
<title>ShareComponent</title>
<polygon fill="#ffffb3" stroke="black" points="403.7,-122 290.3,-122 290.3,-86 403.7,-86 403.7,-122"/>
<text text-anchor="middle" x="347" y="-99.8" font-family="Times,serif" font-size="14.00">ShareComponent</text>
</g>
<!-- ShareComponent&#45;&gt;ListModule -->
<g id="edge5" class="edge">
<title>ShareComponent&#45;&gt;ListModule</title>
<path fill="none" stroke="black" d="M347,-122.03C347,-138.4 347,-160 347,-160 347,-160 454.31,-160 454.31,-160"/>
<polygon fill="black" stroke="black" points="454.31,-163.5 464.31,-160 454.31,-156.5 454.31,-163.5"/>
</g>
<!-- ListRoutingModule -->
<g id="node7" class="node">
<title>ListRoutingModule</title>
<polygon fill="#8dd3c7" stroke="black" points="266.45,-122 263.45,-126 242.45,-126 239.45,-122 139.55,-122 139.55,-86 266.45,-86 266.45,-122"/>
<text text-anchor="middle" x="203" y="-99.8" font-family="Times,serif" font-size="14.00">ListRoutingModule</text>
</g>
<!-- ListRoutingModule&#45;&gt;ListModule -->
<g id="edge6" class="edge">
<title>ListRoutingModule&#45;&gt;ListModule</title>
<path fill="none" stroke="black" d="M203,-122.11C203,-141.34 203,-169 203,-169 203,-169 454.27,-169 454.27,-169"/>
<polygon fill="black" stroke="black" points="454.27,-172.5 464.27,-169 454.27,-165.5 454.27,-172.5"/>
</g>
<!-- SharedModule -->
<g id="node8" class="node">
<title>SharedModule</title>
<polygon fill="#8dd3c7" stroke="black" points="122.42,-122 119.42,-126 98.42,-126 95.42,-122 23.58,-122 23.58,-86 122.42,-86 122.42,-122"/>
<text text-anchor="middle" x="73" y="-99.8" font-family="Times,serif" font-size="14.00">SharedModule</text>
</g>
<!-- SharedModule&#45;&gt;ListModule -->
<g id="edge7" class="edge">
<title>SharedModule&#45;&gt;ListModule</title>
<path fill="none" stroke="black" d="M73,-122.29C73,-144.21 73,-178 73,-178 73,-178 453.97,-178 453.97,-178"/>
<polygon fill="black" stroke="black" points="453.97,-181.5 463.97,-178 453.97,-174.5 453.97,-181.5"/>
</g>
</g>
</svg>
