<?xml version="1.0" encoding="UTF-8" standalone="no"?>
<!DOCTYPE svg PUBLIC "-//W3C//DTD SVG 1.1//EN"
 "http://www.w3.org/Graphics/SVG/1.1/DTD/svg11.dtd">
<!-- Generated by graphviz version 2.47.0 (20210316.0004)
 -->
<!-- Title: dependencies Pages: 1 -->
<svg width="3156pt" height="512pt"
 viewBox="0.00 0.00 3156.00 512.00" xmlns="http://www.w3.org/2000/svg" xmlns:xlink="http://www.w3.org/1999/xlink">
<g id="graph0" class="graph" transform="scale(1 1) rotate(0) translate(4 508)">
<title>dependencies</title>
<polygon fill="white" stroke="transparent" points="-4,4 -4,-508 3152,-508 3152,4 -4,4"/>
<text text-anchor="start" x="1553.01" y="-42.4" font-family="sans-serif" font-weight="bold" font-size="14.00">Legend</text>
<polygon fill="#ffffb3" stroke="transparent" points="1340,-10 1340,-30 1360,-30 1360,-10 1340,-10"/>
<text text-anchor="start" x="1363.63" y="-15.4" font-family="sans-serif" font-size="14.00"> &#160;Declarations</text>
<polygon fill="#8dd3c7" stroke="transparent" points="1453,-10 1453,-30 1473,-30 1473,-10 1453,-10"/>
<text text-anchor="start" x="1476.73" y="-15.4" font-family="sans-serif" font-size="14.00"> &#160;Module</text>
<polygon fill="#80b1d3" stroke="transparent" points="1539,-10 1539,-30 1559,-30 1559,-10 1539,-10"/>
<text text-anchor="start" x="1562.78" y="-15.4" font-family="sans-serif" font-size="14.00"> &#160;Bootstrap</text>
<polygon fill="#fdb462" stroke="transparent" points="1636,-10 1636,-30 1656,-30 1656,-10 1636,-10"/>
<text text-anchor="start" x="1659.67" y="-15.4" font-family="sans-serif" font-size="14.00"> &#160;Providers</text>
<polygon fill="#fb8072" stroke="transparent" points="1732,-10 1732,-30 1752,-30 1752,-10 1732,-10"/>
<text text-anchor="start" x="1755.73" y="-15.4" font-family="sans-serif" font-size="14.00"> &#160;Exports</text>
<g id="clust1" class="cluster">
<title>cluster_AccountModule</title>
<polygon fill="none" stroke="black" stroke-dasharray="1,5" points="2417,-146 2417,-282 3140,-282 3140,-146 2417,-146"/>
</g>
<g id="clust2" class="cluster">
<title>cluster_AccountModule_declarations</title>
<polygon fill="none" stroke="black" points="2717,-154 2717,-206 3132,-206 3132,-154 2717,-154"/>
</g>
<g id="clust6" class="cluster">
<title>cluster_AccountModule_imports</title>
<polygon fill="none" stroke="black" points="2425,-154 2425,-206 2709,-206 2709,-154 2425,-154"/>
</g>
<g id="clust16" class="cluster">
<title>cluster_AppModule</title>
<polygon fill="none" stroke="black" stroke-dasharray="1,5" points="1523,-298 1523,-496 2365,-496 2365,-298 1523,-298"/>
</g>
<g id="clust17" class="cluster">
<title>cluster_AppModule_declarations</title>
<polygon fill="none" stroke="black" points="2235,-306 2235,-358 2357,-358 2357,-306 2235,-306"/>
</g>
<g id="clust19" class="cluster">
<title>cluster_AppModule_imports</title>
<polygon fill="none" stroke="black" points="1855,-306 1855,-358 2227,-358 2227,-306 1855,-306"/>
</g>
<g id="clust21" class="cluster">
<title>cluster_AppModule_bootstrap</title>
<polygon fill="none" stroke="black" points="1991,-436 1991,-488 2115,-488 2115,-436 1991,-436"/>
</g>
<g id="clust22" class="cluster">
<title>cluster_AppModule_providers</title>
<polygon fill="none" stroke="black" points="1531,-306 1531,-358 1847,-358 1847,-306 1531,-306"/>
</g>
<g id="clust29" class="cluster">
<title>cluster_CoreModule</title>
<polygon fill="none" stroke="black" stroke-dasharray="1,5" points="326,-146 326,-366 472,-366 472,-146 326,-146"/>
</g>
<g id="clust30" class="cluster">
<title>cluster_CoreModule_declarations</title>
<polygon fill="none" stroke="black" points="336,-154 336,-206 462,-206 462,-154 336,-154"/>
</g>
<g id="clust32" class="cluster">
<title>cluster_CoreModule_imports</title>
<polygon fill="none" stroke="black" points="334,-230 334,-282 444,-282 444,-230 334,-230"/>
</g>
<g id="clust33" class="cluster">
<title>cluster_CoreModule_exports</title>
<polygon fill="none" stroke="black" points="334,-306 334,-358 464,-358 464,-306 334,-306"/>
</g>
<g id="clust36" class="cluster">
<title>cluster_FinanceModule</title>
<polygon fill="none" stroke="black" stroke-dasharray="1,5" points="482,-146 482,-282 812,-282 812,-146 482,-146"/>
</g>
<g id="clust37" class="cluster">
<title>cluster_FinanceModule_declarations</title>
<polygon fill="none" stroke="black" points="662,-154 662,-206 804,-206 804,-154 662,-154"/>
</g>
<g id="clust39" class="cluster">
<title>cluster_FinanceModule_imports</title>
<polygon fill="none" stroke="black" points="490,-154 490,-206 654,-206 654,-154 490,-154"/>
</g>
<g id="clust49" class="cluster">
<title>cluster_HomeModule</title>
<polygon fill="none" stroke="black" stroke-dasharray="1,5" points="8,-146 8,-214 318,-214 318,-146 8,-146"/>
</g>
<g id="clust50" class="cluster">
<title>cluster_HomeModule_declarations</title>
<polygon fill="none" stroke="black" points="178,-154 178,-206 310,-206 310,-154 178,-154"/>
</g>
<g id="clust53" class="cluster">
<title>cluster_HomeModule_imports</title>
<polygon fill="none" stroke="black" points="16,-154 16,-206 170,-206 170,-154 16,-154"/>
</g>
<g id="clust69" class="cluster">
<title>cluster_ListModule</title>
<polygon fill="none" stroke="black" stroke-dasharray="1,5" points="820,-146 820,-282 1721,-282 1721,-146 820,-146"/>
</g>
<g id="clust70" class="cluster">
<title>cluster_ListModule_declarations</title>
<polygon fill="none" stroke="black" points="978,-154 978,-206 1713,-206 1713,-154 978,-154"/>
</g>
<g id="clust76" class="cluster">
<title>cluster_ListModule_imports</title>
<polygon fill="none" stroke="black" points="828,-154 828,-206 970,-206 970,-154 828,-154"/>
</g>
<g id="clust98" class="cluster">
<title>cluster_ScannerModule</title>
<polygon fill="none" stroke="black" stroke-dasharray="1,5" points="1729,-222 1729,-290 2409,-290 2409,-222 1729,-222"/>
</g>
<g id="clust99" class="cluster">
<title>cluster_ScannerModule_declarations</title>
<polygon fill="none" stroke="black" points="2077,-230 2077,-282 2401,-282 2401,-230 2077,-230"/>
</g>
<g id="clust102" class="cluster">
<title>cluster_ScannerModule_imports</title>
<polygon fill="none" stroke="black" points="1737,-230 1737,-282 2069,-282 2069,-230 1737,-230"/>
</g>
<g id="clust112" class="cluster">
<title>cluster_SharedModule</title>
<polygon fill="none" stroke="black" stroke-dasharray="1,5" points="1915,-70 1915,-138 3077,-138 3077,-70 1915,-70"/>
</g>
<g id="clust113" class="cluster">
<title>cluster_SharedModule_declarations</title>
<polygon fill="none" stroke="black" points="2551,-78 2551,-130 3069,-130 3069,-78 2551,-78"/>
</g>
<g id="clust117" class="cluster">
<title>cluster_SharedModule_imports</title>
<polygon fill="none" stroke="black" points="2421,-78 2421,-130 2543,-130 2543,-78 2421,-78"/>
</g>
<g id="clust118" class="cluster">
<title>cluster_SharedModule_exports</title>
<polygon fill="none" stroke="black" points="1923,-78 1923,-130 2413,-130 2413,-78 1923,-78"/>
</g>
<!-- LayoutComponent -->
<g id="node1" class="node">
<title>LayoutComponent</title>
<polygon fill="#ffffb3" stroke="black" points="2978.49,-198 2857.51,-198 2857.51,-162 2978.49,-162 2978.49,-198"/>
<text text-anchor="middle" x="2918" y="-175.8" font-family="Times,serif" font-size="14.00">LayoutComponent</text>
</g>
<!-- AccountModule -->
<g id="node4" class="node">
<title>AccountModule</title>
<polygon fill="#8dd3c7" stroke="black" points="2561.48,-274 2558.48,-278 2537.48,-278 2534.48,-274 2454.52,-274 2454.52,-238 2561.48,-238 2561.48,-274"/>
<text text-anchor="middle" x="2508" y="-251.8" font-family="Times,serif" font-size="14.00">AccountModule</text>
</g>
<!-- LayoutComponent&#45;&gt;AccountModule -->
<g id="edge1" class="edge">
<title>LayoutComponent&#45;&gt;AccountModule</title>
<path fill="none" stroke="black" d="M2918,-198.01C2918,-220.49 2918,-256 2918,-256 2918,-256 2571.6,-256 2571.6,-256"/>
<polygon fill="black" stroke="black" points="2571.6,-252.5 2561.6,-256 2571.6,-259.5 2571.6,-252.5"/>
</g>
<!-- LoginComponent -->
<g id="node2" class="node">
<title>LoginComponent</title>
<polygon fill="#ffffb3" stroke="black" points="2839.28,-198 2724.72,-198 2724.72,-162 2839.28,-162 2839.28,-198"/>
<text text-anchor="middle" x="2782" y="-175.8" font-family="Times,serif" font-size="14.00">LoginComponent</text>
</g>
<!-- LoginComponent&#45;&gt;AccountModule -->
<g id="edge2" class="edge">
<title>LoginComponent&#45;&gt;AccountModule</title>
<path fill="none" stroke="black" d="M2782,-198.31C2782,-218.15 2782,-247 2782,-247 2782,-247 2571.48,-247 2571.48,-247"/>
<polygon fill="black" stroke="black" points="2571.48,-243.5 2561.48,-247 2571.48,-250.5 2571.48,-243.5"/>
</g>
<!-- RegisterComponent -->
<g id="node3" class="node">
<title>RegisterComponent</title>
<polygon fill="#ffffb3" stroke="black" points="3123.98,-198 2996.02,-198 2996.02,-162 3123.98,-162 3123.98,-198"/>
<text text-anchor="middle" x="3060" y="-175.8" font-family="Times,serif" font-size="14.00">RegisterComponent</text>
</g>
<!-- RegisterComponent&#45;&gt;AccountModule -->
<g id="edge3" class="edge">
<title>RegisterComponent&#45;&gt;AccountModule</title>
<path fill="none" stroke="black" d="M3060,-198.03C3060,-222.98 3060,-265 3060,-265 3060,-265 2571.68,-265 2571.68,-265"/>
<polygon fill="black" stroke="black" points="2571.68,-261.5 2561.68,-265 2571.68,-268.5 2571.68,-261.5"/>
</g>
<!-- CoreModule -->
<g id="node10" class="node">
<title>CoreModule</title>
<polygon fill="#8dd3c7" stroke="black" points="2096.26,-350 2093.26,-354 2072.26,-354 2069.26,-350 2009.74,-350 2009.74,-314 2096.26,-314 2096.26,-350"/>
<text text-anchor="middle" x="2053" y="-327.8" font-family="Times,serif" font-size="14.00">CoreModule</text>
</g>
<!-- AccountModule&#45;&gt;CoreModule -->
<g id="edge15" class="edge">
<title>AccountModule&#45;&gt;CoreModule</title>
<path fill="none" stroke="black" d="M2508,-274.12C2508,-276.97 2508,-279 2508,-279 2508,-279 2090.56,-279 2090.56,-279 2090.56,-279 2090.56,-303.76 2090.56,-303.76"/>
<polygon fill="black" stroke="black" points="2087.06,-303.76 2090.56,-313.76 2094.06,-303.76 2087.06,-303.76"/>
</g>
<!-- AccountRoutingModule -->
<g id="node5" class="node">
<title>AccountRoutingModule</title>
<polygon fill="#8dd3c7" stroke="black" points="2701.09,-198 2698.09,-202 2677.09,-202 2674.09,-198 2548.91,-198 2548.91,-162 2701.09,-162 2701.09,-198"/>
<text text-anchor="middle" x="2625" y="-175.8" font-family="Times,serif" font-size="14.00">AccountRoutingModule</text>
</g>
<!-- AccountRoutingModule&#45;&gt;AccountModule -->
<g id="edge4" class="edge">
<title>AccountRoutingModule&#45;&gt;AccountModule</title>
<path fill="none" stroke="black" d="M2555.22,-198.01C2555.22,-198.01 2555.22,-227.85 2555.22,-227.85"/>
<polygon fill="black" stroke="black" points="2551.72,-227.85 2555.22,-237.85 2558.72,-227.85 2551.72,-227.85"/>
</g>
<!-- SharedModule -->
<g id="node6" class="node">
<title>SharedModule</title>
<polygon fill="#8dd3c7" stroke="black" points="2531.42,-198 2528.42,-202 2507.42,-202 2504.42,-198 2432.58,-198 2432.58,-162 2531.42,-162 2531.42,-198"/>
<text text-anchor="middle" x="2482" y="-175.8" font-family="Times,serif" font-size="14.00">SharedModule</text>
</g>
<!-- SharedModule&#45;&gt;AccountModule -->
<g id="edge5" class="edge">
<title>SharedModule&#45;&gt;AccountModule</title>
<path fill="none" stroke="black" d="M2492.86,-198.01C2492.86,-198.01 2492.86,-227.85 2492.86,-227.85"/>
<polygon fill="black" stroke="black" points="2489.36,-227.85 2492.86,-237.85 2496.36,-227.85 2489.36,-227.85"/>
</g>
<!-- AppModule -->
<g id="node8" class="node">
<title>AppModule</title>
<polygon fill="#8dd3c7" stroke="black" points="2094.66,-415 2091.66,-419 2070.66,-419 2067.66,-415 2011.34,-415 2011.34,-379 2094.66,-379 2094.66,-415"/>
<text text-anchor="middle" x="2053" y="-392.8" font-family="Times,serif" font-size="14.00">AppModule</text>
</g>
<!-- SharedModule&#45;&gt;AppModule -->
<g id="edge10" class="edge">
<title>SharedModule&#45;&gt;AppModule</title>
<path fill="none" stroke="black" d="M2450.17,-198.11C2450.17,-251.74 2450.17,-406 2450.17,-406 2450.17,-406 2104.75,-406 2104.75,-406"/>
<polygon fill="black" stroke="black" points="2104.75,-402.5 2094.75,-406 2104.75,-409.5 2104.75,-402.5"/>
</g>
<!-- SharedModule&#45;&gt;CoreModule -->
<g id="edge17" class="edge">
<title>SharedModule&#45;&gt;CoreModule</title>
<path fill="none" stroke="black" d="M2432.73,-192C2324.76,-192 2076.86,-192 2076.86,-192 2076.86,-192 2076.86,-303.98 2076.86,-303.98"/>
<polygon fill="black" stroke="black" points="2073.36,-303.98 2076.86,-313.98 2080.36,-303.98 2073.36,-303.98"/>
</g>
<!-- ScannerModule -->
<g id="node11" class="node">
<title>ScannerModule</title>
<polygon fill="#8dd3c7" stroke="black" points="2219.14,-350 2216.14,-354 2195.14,-354 2192.14,-350 2114.86,-350 2114.86,-314 2219.14,-314 2219.14,-350"/>
<text text-anchor="middle" x="2167" y="-327.8" font-family="Times,serif" font-size="14.00">ScannerModule</text>
</g>
<!-- SharedModule&#45;&gt;ScannerModule -->
<g id="edge38" class="edge">
<title>SharedModule&#45;&gt;ScannerModule</title>
<path fill="none" stroke="black" d="M2445.82,-198.08C2445.82,-233.8 2445.82,-310 2445.82,-310 2445.82,-310 2201.88,-310 2201.88,-310 2201.88,-310 2201.88,-310.38 2201.88,-310.38"/>
<polygon fill="black" stroke="black" points="2198.38,-303.83 2201.88,-313.83 2205.38,-303.83 2198.38,-303.83"/>
</g>
<!-- HomeModule -->
<g id="node16" class="node">
<title>HomeModule</title>
<polygon fill="#8dd3c7" stroke="black" points="435.76,-274 432.76,-278 411.76,-278 408.76,-274 342.24,-274 342.24,-238 435.76,-238 435.76,-274"/>
<text text-anchor="middle" x="389" y="-251.8" font-family="Times,serif" font-size="14.00">HomeModule</text>
</g>
<!-- SharedModule&#45;&gt;HomeModule -->
<g id="edge25" class="edge">
<title>SharedModule&#45;&gt;HomeModule</title>
<path fill="none" stroke="black" d="M2437.13,-198.24C2437.13,-205.43 2437.13,-212 2437.13,-212 2437.13,-212 405.24,-212 405.24,-212 405.24,-212 405.24,-227.85 405.24,-227.85"/>
<polygon fill="black" stroke="black" points="401.74,-227.85 405.24,-237.85 408.74,-227.85 401.74,-227.85"/>
</g>
<!-- FinanceModule -->
<g id="node19" class="node">
<title>FinanceModule</title>
<polygon fill="#8dd3c7" stroke="black" points="784.87,-274 781.87,-278 760.87,-278 757.87,-274 681.13,-274 681.13,-238 784.87,-238 784.87,-274"/>
<text text-anchor="middle" x="733" y="-251.8" font-family="Times,serif" font-size="14.00">FinanceModule</text>
</g>
<!-- SharedModule&#45;&gt;FinanceModule -->
<g id="edge21" class="edge">
<title>SharedModule&#45;&gt;FinanceModule</title>
<path fill="none" stroke="black" d="M2441.48,-198.04C2441.48,-210.56 2441.48,-225 2441.48,-225 2441.48,-225 750.31,-225 750.31,-225 750.31,-225 750.31,-227.97 750.31,-227.97"/>
<polygon fill="black" stroke="black" points="746.81,-227.97 750.31,-237.97 753.81,-227.97 746.81,-227.97"/>
</g>
<!-- ListModule -->
<g id="node28" class="node">
<title>ListModule</title>
<polygon fill="#8dd3c7" stroke="black" points="1429.83,-274 1426.83,-278 1405.83,-278 1402.83,-274 1348.17,-274 1348.17,-238 1429.83,-238 1429.83,-274"/>
<text text-anchor="middle" x="1389" y="-251.8" font-family="Times,serif" font-size="14.00">ListModule</text>
</g>
<!-- SharedModule&#45;&gt;ListModule -->
<g id="edge33" class="edge">
<title>SharedModule&#45;&gt;ListModule</title>
<path fill="none" stroke="black" d="M2432.61,-186C2264.5,-186 1724.86,-186 1724.86,-186 1724.86,-186 1724.86,-265 1724.86,-265 1724.86,-265 1439.85,-265 1439.85,-265"/>
<polygon fill="black" stroke="black" points="1439.85,-261.5 1429.85,-265 1439.85,-268.5 1439.85,-261.5"/>
</g>
<!-- ConfirmDialogComponent  -->
<g id="node38" class="node">
<title>ConfirmDialogComponent </title>
<polygon fill="#fb8072" stroke="black" points="2277.37,-122 2106.63,-122 2106.63,-86 2277.37,-86 2277.37,-122"/>
<text text-anchor="middle" x="2192" y="-99.8" font-family="Times,serif" font-size="14.00">ConfirmDialogComponent </text>
</g>
<!-- SharedModule&#45;&gt;ConfirmDialogComponent  -->
<g id="edge43" class="edge">
<title>SharedModule&#45;&gt;ConfirmDialogComponent </title>
<path fill="none" stroke="black" stroke-dasharray="5,2" d="M2432.76,-174C2370.69,-174 2271.99,-174 2271.99,-174 2271.99,-174 2271.99,-132.03 2271.99,-132.03"/>
<polygon fill="black" stroke="black" points="2275.49,-132.03 2271.99,-122.03 2268.49,-132.03 2275.49,-132.03"/>
</g>
<!-- ImageAttachComponent  -->
<g id="node39" class="node">
<title>ImageAttachComponent </title>
<polygon fill="#fb8072" stroke="black" points="2088.63,-122 1931.37,-122 1931.37,-86 2088.63,-86 2088.63,-122"/>
<text text-anchor="middle" x="2010" y="-99.8" font-family="Times,serif" font-size="14.00">ImageAttachComponent </text>
</g>
<!-- SharedModule&#45;&gt;ImageAttachComponent  -->
<g id="edge44" class="edge">
<title>SharedModule&#45;&gt;ImageAttachComponent </title>
<path fill="none" stroke="black" stroke-dasharray="5,2" d="M2432.59,-180C2322.96,-180 2068.98,-180 2068.98,-180 2068.98,-180 2068.98,-132.01 2068.98,-132.01"/>
<polygon fill="black" stroke="black" points="2072.48,-132.01 2068.98,-122.01 2065.48,-132.01 2072.48,-132.01"/>
</g>
<!-- MaterialModule  -->
<g id="node40" class="node">
<title>MaterialModule </title>
<polygon fill="#fb8072" stroke="black" points="2405.47,-122 2294.53,-122 2294.53,-86 2405.47,-86 2405.47,-122"/>
<text text-anchor="middle" x="2350" y="-99.8" font-family="Times,serif" font-size="14.00">MaterialModule </text>
</g>
<!-- SharedModule&#45;&gt;MaterialModule  -->
<g id="edge45" class="edge">
<title>SharedModule&#45;&gt;MaterialModule </title>
<path fill="none" stroke="black" stroke-dasharray="5,2" d="M2432.41,-168C2414.78,-168 2399.22,-168 2399.22,-168 2399.22,-168 2399.22,-132.17 2399.22,-132.17"/>
<polygon fill="black" stroke="black" points="2402.72,-132.17 2399.22,-122.17 2395.72,-132.17 2402.72,-132.17"/>
</g>
<!-- AppComponent -->
<g id="node7" class="node">
<title>AppComponent</title>
<polygon fill="#ffffb3" stroke="black" points="2348.94,-350 2243.06,-350 2243.06,-314 2348.94,-314 2348.94,-350"/>
<text text-anchor="middle" x="2296" y="-327.8" font-family="Times,serif" font-size="14.00">AppComponent</text>
</g>
<!-- AppComponent&#45;&gt;AppModule -->
<g id="edge6" class="edge">
<title>AppComponent&#45;&gt;AppModule</title>
<path fill="none" stroke="black" d="M2296,-350.11C2296,-369.34 2296,-397 2296,-397 2296,-397 2104.77,-397 2104.77,-397"/>
<polygon fill="black" stroke="black" points="2104.77,-393.5 2094.77,-397 2104.77,-400.5 2104.77,-393.5"/>
</g>
<!-- AppComponent  -->
<g id="node12" class="node">
<title>AppComponent </title>
<polygon fill="#80b1d3" stroke="black" points="2107.44,-480 1998.56,-480 1998.56,-444 2107.44,-444 2107.44,-480"/>
<text text-anchor="middle" x="2053" y="-457.8" font-family="Times,serif" font-size="14.00">AppComponent </text>
</g>
<!-- AppModule&#45;&gt;AppComponent  -->
<g id="edge11" class="edge">
<title>AppModule&#45;&gt;AppComponent </title>
<path fill="none" stroke="black" stroke-dasharray="1,5" d="M2053,-415.11C2053,-415.11 2053,-433.99 2053,-433.99"/>
<polygon fill="black" stroke="black" points="2049.5,-433.99 2053,-443.99 2056.5,-433.99 2049.5,-433.99"/>
</g>
<!-- AppRoutingModule -->
<g id="node9" class="node">
<title>AppRoutingModule</title>
<polygon fill="#8dd3c7" stroke="black" points="1991.27,-350 1988.27,-354 1967.27,-354 1964.27,-350 1862.73,-350 1862.73,-314 1991.27,-314 1991.27,-350"/>
<text text-anchor="middle" x="1927" y="-327.8" font-family="Times,serif" font-size="14.00">AppRoutingModule</text>
</g>
<!-- AppRoutingModule&#45;&gt;AppModule -->
<g id="edge7" class="edge">
<title>AppRoutingModule&#45;&gt;AppModule</title>
<path fill="none" stroke="black" d="M1927,-350.03C1927,-366.4 1927,-388 1927,-388 1927,-388 2001.04,-388 2001.04,-388"/>
<polygon fill="black" stroke="black" points="2001.04,-391.5 2011.04,-388 2001.04,-384.5 2001.04,-391.5"/>
</g>
<!-- CoreModule&#45;&gt;AppModule -->
<g id="edge8" class="edge">
<title>CoreModule&#45;&gt;AppModule</title>
<path fill="none" stroke="black" d="M2053,-350.11C2053,-350.11 2053,-368.99 2053,-368.99"/>
<polygon fill="black" stroke="black" points="2049.5,-368.99 2053,-378.99 2056.5,-368.99 2049.5,-368.99"/>
</g>
<!-- AlertComponent  -->
<g id="node17" class="node">
<title>AlertComponent </title>
<polygon fill="#fb8072" stroke="black" points="455.6,-350 342.4,-350 342.4,-314 455.6,-314 455.6,-350"/>
<text text-anchor="middle" x="399" y="-327.8" font-family="Times,serif" font-size="14.00">AlertComponent </text>
</g>
<!-- CoreModule&#45;&gt;AlertComponent  -->
<g id="edge18" class="edge">
<title>CoreModule&#45;&gt;AlertComponent </title>
<path fill="none" stroke="black" stroke-dasharray="5,2" d="M2040.51,-313.97C2040.51,-307.15 2040.51,-301 2040.51,-301 2040.51,-301 447.99,-301 447.99,-301 447.99,-301 447.99,-303.97 447.99,-303.97"/>
<polygon fill="black" stroke="black" points="444.49,-303.97 447.99,-313.97 451.49,-303.97 444.49,-303.97"/>
</g>
<!-- ScannerModule&#45;&gt;AppModule -->
<g id="edge9" class="edge">
<title>ScannerModule&#45;&gt;AppModule</title>
<path fill="none" stroke="black" d="M2167,-350.03C2167,-366.4 2167,-388 2167,-388 2167,-388 2104.8,-388 2104.8,-388"/>
<polygon fill="black" stroke="black" points="2104.8,-384.5 2094.8,-388 2104.8,-391.5 2104.8,-384.5"/>
</g>
<!-- ErrorInterceptor -->
<g id="node13" class="node">
<title>ErrorInterceptor</title>
<ellipse fill="#fdb462" stroke="black" cx="1765" cy="-332" rx="73.53" ry="18"/>
<text text-anchor="middle" x="1765" y="-327.8" font-family="Times,serif" font-size="14.00">ErrorInterceptor</text>
</g>
<!-- ErrorInterceptor&#45;&gt;AppModule -->
<g id="edge12" class="edge">
<title>ErrorInterceptor&#45;&gt;AppModule</title>
<path fill="none" stroke="black" d="M1765,-350.11C1765,-369.34 1765,-397 1765,-397 1765,-397 2001.12,-397 2001.12,-397"/>
<polygon fill="black" stroke="black" points="2001.12,-400.5 2011.12,-397 2001.12,-393.5 2001.12,-400.5"/>
</g>
<!-- JwtInterceptor -->
<g id="node14" class="node">
<title>JwtInterceptor</title>
<ellipse fill="#fdb462" stroke="black" cx="1606" cy="-332" rx="66.61" ry="18"/>
<text text-anchor="middle" x="1606" y="-327.8" font-family="Times,serif" font-size="14.00">JwtInterceptor</text>
</g>
<!-- JwtInterceptor&#45;&gt;AppModule -->
<g id="edge13" class="edge">
<title>JwtInterceptor&#45;&gt;AppModule</title>
<path fill="none" stroke="black" d="M1606,-350.29C1606,-372.21 1606,-406 1606,-406 1606,-406 2000.95,-406 2000.95,-406"/>
<polygon fill="black" stroke="black" points="2000.95,-409.5 2010.95,-406 2000.95,-402.5 2000.95,-409.5"/>
</g>
<!-- AlertComponent -->
<g id="node15" class="node">
<title>AlertComponent</title>
<polygon fill="#ffffb3" stroke="black" points="454.1,-198 343.9,-198 343.9,-162 454.1,-162 454.1,-198"/>
<text text-anchor="middle" x="399" y="-175.8" font-family="Times,serif" font-size="14.00">AlertComponent</text>
</g>
<!-- AlertComponent&#45;&gt;CoreModule -->
<g id="edge14" class="edge">
<title>AlertComponent&#45;&gt;CoreModule</title>
<path fill="none" stroke="black" d="M441.94,-198.49C441.94,-230.31 441.94,-292 441.94,-292 441.94,-292 2030.21,-292 2030.21,-292 2030.21,-292 2030.21,-303.87 2030.21,-303.87"/>
<polygon fill="black" stroke="black" points="2026.71,-303.87 2030.21,-313.87 2033.71,-303.87 2026.71,-303.87"/>
</g>
<!-- AlertComponent&#45;&gt;HomeModule -->
<g id="edge22" class="edge">
<title>AlertComponent&#45;&gt;HomeModule</title>
<path fill="none" stroke="black" d="M374.6,-198.01C374.6,-198.01 374.6,-227.85 374.6,-227.85"/>
<polygon fill="black" stroke="black" points="371.1,-227.85 374.6,-237.85 378.1,-227.85 371.1,-227.85"/>
</g>
<!-- HomeModule&#45;&gt;CoreModule -->
<g id="edge16" class="edge">
<title>HomeModule&#45;&gt;CoreModule</title>
<path fill="none" stroke="black" d="M404.65,-274.1C404.65,-285.09 404.65,-297 404.65,-297 404.65,-297 2019.92,-297 2019.92,-297 2019.92,-297 2019.92,-303.68 2019.92,-303.68"/>
<polygon fill="black" stroke="black" points="2016.42,-303.68 2019.92,-313.68 2023.42,-303.68 2016.42,-303.68"/>
</g>
<!-- HomeModule&#45;&gt;AlertComponent  -->
<g id="edge26" class="edge">
<title>HomeModule&#45;&gt;AlertComponent </title>
<path fill="none" stroke="black" stroke-dasharray="5,2" d="M373.43,-274.01C373.43,-274.01 373.43,-303.85 373.43,-303.85"/>
<polygon fill="black" stroke="black" points="369.93,-303.85 373.43,-313.85 376.93,-303.85 369.93,-303.85"/>
</g>
<!-- FinanceComponent -->
<g id="node18" class="node">
<title>FinanceComponent</title>
<polygon fill="#ffffb3" stroke="black" points="795.65,-198 670.35,-198 670.35,-162 795.65,-162 795.65,-198"/>
<text text-anchor="middle" x="733" y="-175.8" font-family="Times,serif" font-size="14.00">FinanceComponent</text>
</g>
<!-- FinanceComponent&#45;&gt;FinanceModule -->
<g id="edge19" class="edge">
<title>FinanceComponent&#45;&gt;FinanceModule</title>
<path fill="none" stroke="black" d="M715.69,-198.01C715.69,-198.01 715.69,-227.85 715.69,-227.85"/>
<polygon fill="black" stroke="black" points="712.19,-227.85 715.69,-237.85 719.19,-227.85 712.19,-227.85"/>
</g>
<!-- FinanceRoutingModule -->
<g id="node20" class="node">
<title>FinanceRoutingModule</title>
<polygon fill="#8dd3c7" stroke="black" points="646.48,-198 643.48,-202 622.48,-202 619.48,-198 497.52,-198 497.52,-162 646.48,-162 646.48,-198"/>
<text text-anchor="middle" x="572" y="-175.8" font-family="Times,serif" font-size="14.00">FinanceRoutingModule</text>
</g>
<!-- FinanceRoutingModule&#45;&gt;FinanceModule -->
<g id="edge20" class="edge">
<title>FinanceRoutingModule&#45;&gt;FinanceModule</title>
<path fill="none" stroke="black" d="M572,-198.01C572,-220.49 572,-256 572,-256 572,-256 670.73,-256 670.73,-256"/>
<polygon fill="black" stroke="black" points="670.73,-259.5 680.73,-256 670.73,-252.5 670.73,-259.5"/>
</g>
<!-- HomeComponent -->
<g id="node21" class="node">
<title>HomeComponent</title>
<polygon fill="#ffffb3" stroke="black" points="301.55,-198 186.45,-198 186.45,-162 301.55,-162 301.55,-198"/>
<text text-anchor="middle" x="244" y="-175.8" font-family="Times,serif" font-size="14.00">HomeComponent</text>
</g>
<!-- HomeComponent&#45;&gt;HomeModule -->
<g id="edge23" class="edge">
<title>HomeComponent&#45;&gt;HomeModule</title>
<path fill="none" stroke="black" d="M244,-198.03C244,-218.77 244,-250 244,-250 244,-250 331.92,-250 331.92,-250"/>
<polygon fill="black" stroke="black" points="331.92,-253.5 341.92,-250 331.92,-246.5 331.92,-253.5"/>
</g>
<!-- HomeRoutingModule -->
<g id="node22" class="node">
<title>HomeRoutingModule</title>
<polygon fill="#8dd3c7" stroke="black" points="162.38,-198 159.38,-202 138.38,-202 135.38,-198 23.62,-198 23.62,-162 162.38,-162 162.38,-198"/>
<text text-anchor="middle" x="93" y="-175.8" font-family="Times,serif" font-size="14.00">HomeRoutingModule</text>
</g>
<!-- HomeRoutingModule&#45;&gt;HomeModule -->
<g id="edge24" class="edge">
<title>HomeRoutingModule&#45;&gt;HomeModule</title>
<path fill="none" stroke="black" d="M93,-198.2C93,-222.36 93,-262 93,-262 93,-262 332.1,-262 332.1,-262"/>
<polygon fill="black" stroke="black" points="332.1,-265.5 342.1,-262 332.1,-258.5 332.1,-265.5"/>
</g>
<!-- ListComponent -->
<g id="node23" class="node">
<title>ListComponent</title>
<polygon fill="#ffffb3" stroke="black" points="1573.61,-198 1470.39,-198 1470.39,-162 1573.61,-162 1573.61,-198"/>
<text text-anchor="middle" x="1522" y="-175.8" font-family="Times,serif" font-size="14.00">ListComponent</text>
</g>
<!-- ListComponent&#45;&gt;ListModule -->
<g id="edge27" class="edge">
<title>ListComponent&#45;&gt;ListModule</title>
<path fill="none" stroke="black" d="M1504.82,-198.31C1504.82,-218.15 1504.82,-247 1504.82,-247 1504.82,-247 1439.83,-247 1439.83,-247"/>
<polygon fill="black" stroke="black" points="1439.83,-243.5 1429.83,-247 1439.83,-250.5 1439.83,-243.5"/>
</g>
<!-- ListEditComponent -->
<g id="node24" class="node">
<title>ListEditComponent</title>
<polygon fill="#ffffb3" stroke="black" points="1452.45,-198 1325.55,-198 1325.55,-162 1452.45,-162 1452.45,-198"/>
<text text-anchor="middle" x="1389" y="-175.8" font-family="Times,serif" font-size="14.00">ListEditComponent</text>
</g>
<!-- ListEditComponent&#45;&gt;ListModule -->
<g id="edge28" class="edge">
<title>ListEditComponent&#45;&gt;ListModule</title>
<path fill="none" stroke="black" d="M1389,-198.01C1389,-198.01 1389,-227.85 1389,-227.85"/>
<polygon fill="black" stroke="black" points="1385.5,-227.85 1389,-237.85 1392.5,-227.85 1385.5,-227.85"/>
</g>
<!-- ListHomeComponent -->
<g id="node25" class="node">
<title>ListHomeComponent</title>
<polygon fill="#ffffb3" stroke="black" points="1307.82,-198 1170.18,-198 1170.18,-162 1307.82,-162 1307.82,-198"/>
<text text-anchor="middle" x="1239" y="-175.8" font-family="Times,serif" font-size="14.00">ListHomeComponent</text>
</g>
<!-- ListHomeComponent&#45;&gt;ListModule -->
<g id="edge29" class="edge">
<title>ListHomeComponent&#45;&gt;ListModule</title>
<path fill="none" stroke="black" d="M1239,-198.31C1239,-218.15 1239,-247 1239,-247 1239,-247 1338.01,-247 1338.01,-247"/>
<polygon fill="black" stroke="black" points="1338.01,-250.5 1348.01,-247 1338.01,-243.5 1338.01,-250.5"/>
</g>
<!-- ListItemDialogComponent -->
<g id="node26" class="node">
<title>ListItemDialogComponent</title>
<polygon fill="#ffffb3" stroke="black" points="1152.37,-198 985.63,-198 985.63,-162 1152.37,-162 1152.37,-198"/>
<text text-anchor="middle" x="1069" y="-175.8" font-family="Times,serif" font-size="14.00">ListItemDialogComponent</text>
</g>
<!-- ListItemDialogComponent&#45;&gt;ListModule -->
<g id="edge30" class="edge">
<title>ListItemDialogComponent&#45;&gt;ListModule</title>
<path fill="none" stroke="black" d="M1069,-198.01C1069,-220.49 1069,-256 1069,-256 1069,-256 1338.15,-256 1338.15,-256"/>
<polygon fill="black" stroke="black" points="1338.15,-259.5 1348.15,-256 1338.15,-252.5 1338.15,-259.5"/>
</g>
<!-- ShareComponent -->
<g id="node27" class="node">
<title>ShareComponent</title>
<polygon fill="#ffffb3" stroke="black" points="1704.7,-198 1591.3,-198 1591.3,-162 1704.7,-162 1704.7,-198"/>
<text text-anchor="middle" x="1648" y="-175.8" font-family="Times,serif" font-size="14.00">ShareComponent</text>
</g>
<!-- ShareComponent&#45;&gt;ListModule -->
<g id="edge31" class="edge">
<title>ShareComponent&#45;&gt;ListModule</title>
<path fill="none" stroke="black" d="M1632.1,-198.01C1632.1,-220.49 1632.1,-256 1632.1,-256 1632.1,-256 1439.69,-256 1439.69,-256"/>
<polygon fill="black" stroke="black" points="1439.69,-252.5 1429.69,-256 1439.69,-259.5 1439.69,-252.5"/>
</g>
<!-- ListRoutingModule -->
<g id="node29" class="node">
<title>ListRoutingModule</title>
<polygon fill="#8dd3c7" stroke="black" points="962.45,-198 959.45,-202 938.45,-202 935.45,-198 835.55,-198 835.55,-162 962.45,-162 962.45,-198"/>
<text text-anchor="middle" x="899" y="-175.8" font-family="Times,serif" font-size="14.00">ListRoutingModule</text>
</g>
<!-- ListRoutingModule&#45;&gt;ListModule -->
<g id="edge32" class="edge">
<title>ListRoutingModule&#45;&gt;ListModule</title>
<path fill="none" stroke="black" d="M899,-198.03C899,-222.98 899,-265 899,-265 899,-265 1338.07,-265 1338.07,-265"/>
<polygon fill="black" stroke="black" points="1338.07,-268.5 1348.07,-265 1338.07,-261.5 1338.07,-268.5"/>
</g>
<!-- ScannerComponent -->
<g id="node30" class="node">
<title>ScannerComponent</title>
<polygon fill="#ffffb3" stroke="black" points="2393.42,-274 2266.58,-274 2266.58,-238 2393.42,-238 2393.42,-274"/>
<text text-anchor="middle" x="2330" y="-251.8" font-family="Times,serif" font-size="14.00">ScannerComponent</text>
</g>
<!-- ScannerComponent&#45;&gt;ScannerModule -->
<g id="edge34" class="edge">
<title>ScannerComponent&#45;&gt;ScannerModule</title>
<path fill="none" stroke="black" d="M2307.75,-274.05C2307.75,-288.37 2307.75,-306 2307.75,-306 2307.75,-306 2184.44,-306 2184.44,-306 2184.44,-306 2184.44,-306.79 2184.44,-306.79"/>
<polygon fill="black" stroke="black" points="2180.94,-303.94 2184.44,-313.94 2187.94,-303.94 2180.94,-303.94"/>
</g>
<!-- ScannerDialogComponent -->
<g id="node31" class="node">
<title>ScannerDialogComponent</title>
<polygon fill="#ffffb3" stroke="black" points="2249.02,-274 2084.98,-274 2084.98,-238 2249.02,-238 2249.02,-274"/>
<text text-anchor="middle" x="2167" y="-251.8" font-family="Times,serif" font-size="14.00">ScannerDialogComponent</text>
</g>
<!-- ScannerDialogComponent&#45;&gt;ScannerModule -->
<g id="edge35" class="edge">
<title>ScannerDialogComponent&#45;&gt;ScannerModule</title>
<path fill="none" stroke="black" d="M2167,-274.01C2167,-274.01 2167,-303.85 2167,-303.85"/>
<polygon fill="black" stroke="black" points="2163.5,-303.85 2167,-313.85 2170.5,-303.85 2163.5,-303.85"/>
</g>
<!-- OpenFoodFactsModule -->
<g id="node32" class="node">
<title>OpenFoodFactsModule</title>
<polygon fill="#8dd3c7" stroke="black" points="2061.2,-274 2058.2,-278 2037.2,-278 2034.2,-274 1912.8,-274 1912.8,-238 2061.2,-238 2061.2,-274"/>
<text text-anchor="middle" x="1987" y="-251.8" font-family="Times,serif" font-size="14.00">OpenFoodFactsModule</text>
</g>
<!-- OpenFoodFactsModule&#45;&gt;ScannerModule -->
<g id="edge36" class="edge">
<title>OpenFoodFactsModule&#45;&gt;ScannerModule</title>
<path fill="none" stroke="black" d="M2050.8,-274.16C2050.8,-279.04 2050.8,-283 2050.8,-283 2050.8,-283 2149.56,-283 2149.56,-283 2149.56,-283 2149.56,-303.75 2149.56,-303.75"/>
<polygon fill="black" stroke="black" points="2146.06,-303.75 2149.56,-313.75 2153.06,-303.75 2146.06,-303.75"/>
</g>
<!-- ScannerRoutingModule -->
<g id="node33" class="node">
<title>ScannerRoutingModule</title>
<polygon fill="#8dd3c7" stroke="black" points="1894.75,-274 1891.75,-278 1870.75,-278 1867.75,-274 1745.25,-274 1745.25,-238 1894.75,-238 1894.75,-274"/>
<text text-anchor="middle" x="1820" y="-251.8" font-family="Times,serif" font-size="14.00">ScannerRoutingModule</text>
</g>
<!-- ScannerRoutingModule&#45;&gt;ScannerModule -->
<g id="edge37" class="edge">
<title>ScannerRoutingModule&#45;&gt;ScannerModule</title>
<path fill="none" stroke="black" d="M1878.75,-274.24C1878.75,-281.43 1878.75,-288 1878.75,-288 1878.75,-288 2132.12,-288 2132.12,-288 2132.12,-288 2132.12,-303.85 2132.12,-303.85"/>
<polygon fill="black" stroke="black" points="2128.62,-303.85 2132.12,-313.85 2135.62,-303.85 2128.62,-303.85"/>
</g>
<!-- ConfirmDialogComponent -->
<g id="node34" class="node">
<title>ConfirmDialogComponent</title>
<polygon fill="#ffffb3" stroke="black" points="2897.37,-122 2730.63,-122 2730.63,-86 2897.37,-86 2897.37,-122"/>
<text text-anchor="middle" x="2814" y="-99.8" font-family="Times,serif" font-size="14.00">ConfirmDialogComponent</text>
</g>
<!-- ConfirmDialogComponent&#45;&gt;SharedModule -->
<g id="edge39" class="edge">
<title>ConfirmDialogComponent&#45;&gt;SharedModule</title>
<path fill="none" stroke="black" d="M2784.98,-122.24C2784.98,-129.43 2784.98,-136 2784.98,-136 2784.98,-136 2482,-136 2482,-136 2482,-136 2482,-151.85 2482,-151.85"/>
<polygon fill="black" stroke="black" points="2478.5,-151.85 2482,-161.85 2485.5,-151.85 2478.5,-151.85"/>
</g>
<!-- ImageAttachComponent -->
<g id="node35" class="node">
<title>ImageAttachComponent</title>
<polygon fill="#ffffb3" stroke="black" points="2712.63,-122 2559.37,-122 2559.37,-86 2712.63,-86 2712.63,-122"/>
<text text-anchor="middle" x="2636" y="-99.8" font-family="Times,serif" font-size="14.00">ImageAttachComponent</text>
</g>
<!-- ImageAttachComponent&#45;&gt;SharedModule -->
<g id="edge40" class="edge">
<title>ImageAttachComponent&#45;&gt;SharedModule</title>
<path fill="none" stroke="black" d="M2558.99,-104C2549.03,-104 2542.22,-104 2542.22,-104 2542.22,-104 2542.22,-180 2542.22,-180 2542.22,-180 2541.14,-180 2541.14,-180"/>
<polygon fill="black" stroke="black" points="2541.45,-176.5 2531.45,-180 2541.45,-183.5 2541.45,-176.5"/>
</g>
<!-- ListGalleryComponent -->
<g id="node36" class="node">
<title>ListGalleryComponent</title>
<polygon fill="#ffffb3" stroke="black" points="3060.59,-122 2915.41,-122 2915.41,-86 3060.59,-86 3060.59,-122"/>
<text text-anchor="middle" x="2988" y="-99.8" font-family="Times,serif" font-size="14.00">ListGalleryComponent</text>
</g>
<!-- ListGalleryComponent&#45;&gt;SharedModule -->
<g id="edge41" class="edge">
<title>ListGalleryComponent&#45;&gt;SharedModule</title>
<path fill="none" stroke="black" d="M2946.98,-122.04C2946.98,-134.56 2946.98,-149 2946.98,-149 2946.98,-149 2506.61,-149 2506.61,-149 2506.61,-149 2506.61,-151.97 2506.61,-151.97"/>
<polygon fill="black" stroke="black" points="2503.11,-151.97 2506.61,-161.97 2510.11,-151.97 2503.11,-151.97"/>
</g>
<!-- MaterialModule -->
<g id="node37" class="node">
<title>MaterialModule</title>
<polygon fill="#8dd3c7" stroke="black" points="2535.47,-122 2532.47,-126 2511.47,-126 2508.47,-122 2428.53,-122 2428.53,-86 2535.47,-86 2535.47,-122"/>
<text text-anchor="middle" x="2482" y="-99.8" font-family="Times,serif" font-size="14.00">MaterialModule</text>
</g>
<!-- MaterialModule&#45;&gt;SharedModule -->
<g id="edge42" class="edge">
<title>MaterialModule&#45;&gt;SharedModule</title>
<path fill="none" stroke="black" d="M2457.39,-122.01C2457.39,-122.01 2457.39,-151.85 2457.39,-151.85"/>
<polygon fill="black" stroke="black" points="2453.89,-151.85 2457.39,-161.85 2460.89,-151.85 2453.89,-151.85"/>
</g>
</g>
</svg>
