<?xml version="1.0" encoding="UTF-8" standalone="no"?>
<!DOCTYPE svg PUBLIC "-//W3C//DTD SVG 1.1//EN"
 "http://www.w3.org/Graphics/SVG/1.1/DTD/svg11.dtd">
<!-- Generated by graphviz version 2.47.0 (20210316.0004)
 -->
<!-- Title: dependencies Pages: 1 -->
<svg width="687pt" height="284pt"
 viewBox="0.00 0.00 687.00 284.00" xmlns="http://www.w3.org/2000/svg" xmlns:xlink="http://www.w3.org/1999/xlink">
<g id="graph0" class="graph" transform="scale(1 1) rotate(0) translate(4 280)">
<title>dependencies</title>
<polygon fill="white" stroke="transparent" points="-4,4 -4,-280 683,-280 683,4 -4,4"/>
<text text-anchor="start" x="318.51" y="-42.4" font-family="sans-serif" font-weight="bold" font-size="14.00">Legend</text>
<polygon fill="#ffffb3" stroke="transparent" points="105.5,-10 105.5,-30 125.5,-30 125.5,-10 105.5,-10"/>
<text text-anchor="start" x="129.13" y="-15.4" font-family="sans-serif" font-size="14.00"> &#160;Declarations</text>
<polygon fill="#8dd3c7" stroke="transparent" points="218.5,-10 218.5,-30 238.5,-30 238.5,-10 218.5,-10"/>
<text text-anchor="start" x="242.23" y="-15.4" font-family="sans-serif" font-size="14.00"> &#160;Module</text>
<polygon fill="#80b1d3" stroke="transparent" points="304.5,-10 304.5,-30 324.5,-30 324.5,-10 304.5,-10"/>
<text text-anchor="start" x="328.28" y="-15.4" font-family="sans-serif" font-size="14.00"> &#160;Bootstrap</text>
<polygon fill="#fdb462" stroke="transparent" points="401.5,-10 401.5,-30 421.5,-30 421.5,-10 401.5,-10"/>
<text text-anchor="start" x="425.17" y="-15.4" font-family="sans-serif" font-size="14.00"> &#160;Providers</text>
<polygon fill="#fb8072" stroke="transparent" points="497.5,-10 497.5,-30 517.5,-30 517.5,-10 497.5,-10"/>
<text text-anchor="start" x="521.23" y="-15.4" font-family="sans-serif" font-size="14.00"> &#160;Exports</text>
<g id="clust1" class="cluster">
<title>cluster_SharedModule</title>
<polygon fill="none" stroke="black" stroke-dasharray="1,5" points="8,-70 8,-268 671,-268 671,-70 8,-70"/>
</g>
<g id="clust6" class="cluster">
<title>cluster_SharedModule_imports</title>
<polygon fill="none" stroke="black" points="541,-78 541,-130 663,-130 663,-78 541,-78"/>
</g>
<g id="clust7" class="cluster">
<title>cluster_SharedModule_exports</title>
<polygon fill="none" stroke="black" points="111,-208 111,-260 601,-260 601,-208 111,-208"/>
</g>
<g id="clust2" class="cluster">
<title>cluster_SharedModule_declarations</title>
<polygon fill="none" stroke="black" points="16,-78 16,-130 533,-130 533,-78 16,-78"/>
</g>
<!-- ConfirmDialogComponent -->
<g id="node1" class="node">
<title>ConfirmDialogComponent</title>
<polygon fill="#ffffb3" stroke="black" points="525.37,-122 358.63,-122 358.63,-86 525.37,-86 525.37,-122"/>
<text text-anchor="middle" x="442" y="-99.8" font-family="Times,serif" font-size="14.00">ConfirmDialogComponent</text>
</g>
<!-- SharedModule -->
<g id="node4" class="node">
<title>SharedModule</title>
<polygon fill="#8dd3c7" stroke="black" points="375.42,-187 372.42,-191 351.42,-191 348.42,-187 276.58,-187 276.58,-151 375.42,-151 375.42,-187"/>
<text text-anchor="middle" x="326" y="-164.8" font-family="Times,serif" font-size="14.00">SharedModule</text>
</g>
<!-- ConfirmDialogComponent&#45;&gt;SharedModule -->
<g id="edge1" class="edge">
<title>ConfirmDialogComponent&#45;&gt;SharedModule</title>
<path fill="none" stroke="black" d="M366.89,-122.11C366.89,-122.11 366.89,-140.99 366.89,-140.99"/>
<polygon fill="black" stroke="black" points="363.39,-140.99 366.89,-150.99 370.39,-140.99 363.39,-140.99"/>
</g>
<!-- ImageAttachComponent -->
<g id="node2" class="node">
<title>ImageAttachComponent</title>
<polygon fill="#ffffb3" stroke="black" points="340.63,-122 187.37,-122 187.37,-86 340.63,-86 340.63,-122"/>
<text text-anchor="middle" x="264" y="-99.8" font-family="Times,serif" font-size="14.00">ImageAttachComponent</text>
</g>
<!-- ImageAttachComponent&#45;&gt;SharedModule -->
<g id="edge2" class="edge">
<title>ImageAttachComponent&#45;&gt;SharedModule</title>
<path fill="none" stroke="black" d="M308.8,-122.11C308.8,-122.11 308.8,-140.99 308.8,-140.99"/>
<polygon fill="black" stroke="black" points="305.3,-140.99 308.8,-150.99 312.3,-140.99 305.3,-140.99"/>
</g>
<!-- ListGalleryComponent -->
<g id="node3" class="node">
<title>ListGalleryComponent</title>
<polygon fill="#ffffb3" stroke="black" points="169.59,-122 24.41,-122 24.41,-86 169.59,-86 169.59,-122"/>
<text text-anchor="middle" x="97" y="-99.8" font-family="Times,serif" font-size="14.00">ListGalleryComponent</text>
</g>
<!-- ListGalleryComponent&#45;&gt;SharedModule -->
<g id="edge3" class="edge">
<title>ListGalleryComponent&#45;&gt;SharedModule</title>
<path fill="none" stroke="black" d="M144.15,-122.02C144.15,-139.37 144.15,-163 144.15,-163 144.15,-163 266.31,-163 266.31,-163"/>
<polygon fill="black" stroke="black" points="266.31,-166.5 276.31,-163 266.31,-159.5 266.31,-166.5"/>
</g>
<!-- ConfirmDialogComponent  -->
<g id="node6" class="node">
<title>ConfirmDialogComponent </title>
<polygon fill="#fb8072" stroke="black" points="593.37,-252 422.63,-252 422.63,-216 593.37,-216 593.37,-252"/>
<text text-anchor="middle" x="508" y="-229.8" font-family="Times,serif" font-size="14.00">ConfirmDialogComponent </text>
</g>
<!-- SharedModule&#45;&gt;ConfirmDialogComponent  -->
<g id="edge5" class="edge">
<title>SharedModule&#45;&gt;ConfirmDialogComponent </title>
<path fill="none" stroke="black" stroke-dasharray="5,2" d="M375.32,-175C418.41,-175 474.12,-175 474.12,-175 474.12,-175 474.12,-205.98 474.12,-205.98"/>
<polygon fill="black" stroke="black" points="470.63,-205.98 474.12,-215.98 477.63,-205.98 470.63,-205.98"/>
</g>
<!-- ImageAttachComponent  -->
<g id="node7" class="node">
<title>ImageAttachComponent </title>
<polygon fill="#fb8072" stroke="black" points="404.63,-252 247.37,-252 247.37,-216 404.63,-216 404.63,-252"/>
<text text-anchor="middle" x="326" y="-229.8" font-family="Times,serif" font-size="14.00">ImageAttachComponent </text>
</g>
<!-- SharedModule&#45;&gt;ImageAttachComponent  -->
<g id="edge6" class="edge">
<title>SharedModule&#45;&gt;ImageAttachComponent </title>
<path fill="none" stroke="black" stroke-dasharray="5,2" d="M326,-187.11C326,-187.11 326,-205.99 326,-205.99"/>
<polygon fill="black" stroke="black" points="322.5,-205.99 326,-215.99 329.5,-205.99 322.5,-205.99"/>
</g>
<!-- MaterialModule  -->
<g id="node8" class="node">
<title>MaterialModule </title>
<polygon fill="#fb8072" stroke="black" points="229.47,-252 118.53,-252 118.53,-216 229.47,-216 229.47,-252"/>
<text text-anchor="middle" x="174" y="-229.8" font-family="Times,serif" font-size="14.00">MaterialModule </text>
</g>
<!-- SharedModule&#45;&gt;MaterialModule  -->
<g id="edge7" class="edge">
<title>SharedModule&#45;&gt;MaterialModule </title>
<path fill="none" stroke="black" stroke-dasharray="5,2" d="M276.73,-175C244.45,-175 208.21,-175 208.21,-175 208.21,-175 208.21,-205.98 208.21,-205.98"/>
<polygon fill="black" stroke="black" points="204.71,-205.98 208.21,-215.98 211.71,-205.98 204.71,-205.98"/>
</g>
<!-- MaterialModule -->
<g id="node5" class="node">
<title>MaterialModule</title>
<polygon fill="#8dd3c7" stroke="black" points="655.47,-122 652.47,-126 631.47,-126 628.47,-122 548.53,-122 548.53,-86 655.47,-86 655.47,-122"/>
<text text-anchor="middle" x="602" y="-99.8" font-family="Times,serif" font-size="14.00">MaterialModule</text>
</g>
<!-- MaterialModule&#45;&gt;SharedModule -->
<g id="edge4" class="edge">
<title>MaterialModule&#45;&gt;SharedModule</title>
<path fill="none" stroke="black" d="M570.85,-122.02C570.85,-139.37 570.85,-163 570.85,-163 570.85,-163 385.25,-163 385.25,-163"/>
<polygon fill="black" stroke="black" points="385.25,-159.5 375.25,-163 385.25,-166.5 385.25,-159.5"/>
</g>
</g>
</svg>
