<?xml version="1.0" encoding="UTF-8" standalone="no"?>
<!DOCTYPE svg PUBLIC "-//W3C//DTD SVG 1.1//EN"
 "http://www.w3.org/Graphics/SVG/1.1/DTD/svg11.dtd">
<!-- Generated by graphviz version 2.47.0 (20210316.0004)
 -->
<!-- Title: dependencies Pages: 1 -->
<svg width="687pt" height="284pt"
 viewBox="0.00 0.00 687.00 284.00" xmlns="http://www.w3.org/2000/svg" xmlns:xlink="http://www.w3.org/1999/xlink">
<g id="graph0" class="graph" transform="scale(1 1) rotate(0) translate(4 280)">
<title>dependencies</title>
<polygon fill="white" stroke="transparent" points="-4,4 -4,-280 683,-280 683,4 -4,4"/>
<text text-anchor="start" x="318.51" y="-42.4" font-family="sans-serif" font-weight="bold" font-size="14.00">Legend</text>
<polygon fill="#ffffb3" stroke="transparent" points="105.5,-10 105.5,-30 125.5,-30 125.5,-10 105.5,-10"/>
<text text-anchor="start" x="129.13" y="-15.4" font-family="sans-serif" font-size="14.00"> &#160;Declarations</text>
<polygon fill="#8dd3c7" stroke="transparent" points="218.5,-10 218.5,-30 238.5,-30 238.5,-10 218.5,-10"/>
<text text-anchor="start" x="242.23" y="-15.4" font-family="sans-serif" font-size="14.00"> &#160;Module</text>
<polygon fill="#80b1d3" stroke="transparent" points="304.5,-10 304.5,-30 324.5,-30 324.5,-10 304.5,-10"/>
<text text-anchor="start" x="328.28" y="-15.4" font-family="sans-serif" font-size="14.00"> &#160;Bootstrap</text>
<polygon fill="#fdb462" stroke="transparent" points="401.5,-10 401.5,-30 421.5,-30 421.5,-10 401.5,-10"/>
<text text-anchor="start" x="425.17" y="-15.4" font-family="sans-serif" font-size="14.00"> &#160;Providers</text>
<polygon fill="#fb8072" stroke="transparent" points="497.5,-10 497.5,-30 517.5,-30 517.5,-10 497.5,-10"/>
<text text-anchor="start" x="521.23" y="-15.4" font-family="sans-serif" font-size="14.00"> &#160;Exports</text>
<g id="clust1" class="cluster">
<title>cluster_SharedModule</title>
<polygon fill="none" stroke="black" stroke-dasharray="1,5" points="8,-70 8,-268 671,-268 671,-70 8,-70"/>
</g>
<g id="clust2" class="cluster">
<title>cluster_SharedModule_declarations</title>
<polygon fill="none" stroke="black" points="146,-78 146,-130 663,-130 663,-78 146,-78"/>
</g>
<g id="clust6" class="cluster">
<title>cluster_SharedModule_imports</title>
<polygon fill="none" stroke="black" points="16,-78 16,-130 138,-130 138,-78 16,-78"/>
</g>
<g id="clust7" class="cluster">
<title>cluster_SharedModule_exports</title>
<polygon fill="none" stroke="black" points="94,-208 94,-260 584,-260 584,-208 94,-208"/>
</g>
<!-- ConfirmDialogComponent -->
<g id="node1" class="node">
<title>ConfirmDialogComponent</title>
<polygon fill="#ffffb3" stroke="black" points="655.37,-122 488.63,-122 488.63,-86 655.37,-86 655.37,-122"/>
<text text-anchor="middle" x="572" y="-99.8" font-family="Times,serif" font-size="14.00">ConfirmDialogComponent</text>
</g>
<!-- SharedModule -->
<g id="node4" class="node">
<title>SharedModule</title>
<polygon fill="#8dd3c7" stroke="black" points="358.42,-187 355.42,-191 334.42,-191 331.42,-187 259.58,-187 259.58,-151 358.42,-151 358.42,-187"/>
<text text-anchor="middle" x="309" y="-164.8" font-family="Times,serif" font-size="14.00">SharedModule</text>
</g>
<!-- ConfirmDialogComponent&#45;&gt;SharedModule -->
<g id="edge1" class="edge">
<title>ConfirmDialogComponent&#45;&gt;SharedModule</title>
<path fill="none" stroke="black" d="M532.38,-122.02C532.38,-139.37 532.38,-163 532.38,-163 532.38,-163 368.3,-163 368.3,-163"/>
<polygon fill="black" stroke="black" points="368.3,-159.5 358.3,-163 368.3,-166.5 368.3,-159.5"/>
</g>
<!-- ImageAttachComponent -->
<g id="node2" class="node">
<title>ImageAttachComponent</title>
<polygon fill="#ffffb3" stroke="black" points="470.63,-122 317.37,-122 317.37,-86 470.63,-86 470.63,-122"/>
<text text-anchor="middle" x="394" y="-99.8" font-family="Times,serif" font-size="14.00">ImageAttachComponent</text>
</g>
<!-- ImageAttachComponent&#45;&gt;SharedModule -->
<g id="edge2" class="edge">
<title>ImageAttachComponent&#45;&gt;SharedModule</title>
<path fill="none" stroke="black" d="M337.7,-122.11C337.7,-122.11 337.7,-140.99 337.7,-140.99"/>
<polygon fill="black" stroke="black" points="334.2,-140.99 337.7,-150.99 341.2,-140.99 334.2,-140.99"/>
</g>
<!-- ListGalleryComponent -->
<g id="node3" class="node">
<title>ListGalleryComponent</title>
<polygon fill="#ffffb3" stroke="black" points="299.59,-122 154.41,-122 154.41,-86 299.59,-86 299.59,-122"/>
<text text-anchor="middle" x="227" y="-99.8" font-family="Times,serif" font-size="14.00">ListGalleryComponent</text>
</g>
<!-- ListGalleryComponent&#45;&gt;SharedModule -->
<g id="edge3" class="edge">
<title>ListGalleryComponent&#45;&gt;SharedModule</title>
<path fill="none" stroke="black" d="M279.67,-122.11C279.67,-122.11 279.67,-140.99 279.67,-140.99"/>
<polygon fill="black" stroke="black" points="276.17,-140.99 279.67,-150.99 283.17,-140.99 276.17,-140.99"/>
</g>
<!-- ConfirmDialogComponent  -->
<g id="node6" class="node">
<title>ConfirmDialogComponent </title>
<polygon fill="#fb8072" stroke="black" points="576.37,-252 405.63,-252 405.63,-216 576.37,-216 576.37,-252"/>
<text text-anchor="middle" x="491" y="-229.8" font-family="Times,serif" font-size="14.00">ConfirmDialogComponent </text>
</g>
<!-- SharedModule&#45;&gt;ConfirmDialogComponent  -->
<g id="edge5" class="edge">
<title>SharedModule&#45;&gt;ConfirmDialogComponent </title>
<path fill="none" stroke="black" stroke-dasharray="5,2" d="M358.26,-175C394.8,-175 438.31,-175 438.31,-175 438.31,-175 438.31,-205.98 438.31,-205.98"/>
<polygon fill="black" stroke="black" points="434.81,-205.98 438.31,-215.98 441.81,-205.98 434.81,-205.98"/>
</g>
<!-- ImageAttachComponent  -->
<g id="node7" class="node">
<title>ImageAttachComponent </title>
<polygon fill="#fb8072" stroke="black" points="387.63,-252 230.37,-252 230.37,-216 387.63,-216 387.63,-252"/>
<text text-anchor="middle" x="309" y="-229.8" font-family="Times,serif" font-size="14.00">ImageAttachComponent </text>
</g>
<!-- SharedModule&#45;&gt;ImageAttachComponent  -->
<g id="edge6" class="edge">
<title>SharedModule&#45;&gt;ImageAttachComponent </title>
<path fill="none" stroke="black" stroke-dasharray="5,2" d="M309,-187.11C309,-187.11 309,-205.99 309,-205.99"/>
<polygon fill="black" stroke="black" points="305.5,-205.99 309,-215.99 312.5,-205.99 305.5,-205.99"/>
</g>
<!-- MaterialModule  -->
<g id="node8" class="node">
<title>MaterialModule </title>
<polygon fill="#fb8072" stroke="black" points="212.47,-252 101.53,-252 101.53,-216 212.47,-216 212.47,-252"/>
<text text-anchor="middle" x="157" y="-229.8" font-family="Times,serif" font-size="14.00">MaterialModule </text>
</g>
<!-- SharedModule&#45;&gt;MaterialModule  -->
<g id="edge7" class="edge">
<title>SharedModule&#45;&gt;MaterialModule </title>
<path fill="none" stroke="black" stroke-dasharray="5,2" d="M259.7,-175C224.5,-175 183.35,-175 183.35,-175 183.35,-175 183.35,-205.98 183.35,-205.98"/>
<polygon fill="black" stroke="black" points="179.85,-205.98 183.35,-215.98 186.85,-205.98 179.85,-205.98"/>
</g>
<!-- MaterialModule -->
<g id="node5" class="node">
<title>MaterialModule</title>
<polygon fill="#8dd3c7" stroke="black" points="130.47,-122 127.47,-126 106.47,-126 103.47,-122 23.53,-122 23.53,-86 130.47,-86 130.47,-122"/>
<text text-anchor="middle" x="77" y="-99.8" font-family="Times,serif" font-size="14.00">MaterialModule</text>
</g>
<!-- MaterialModule&#45;&gt;SharedModule -->
<g id="edge4" class="edge">
<title>MaterialModule&#45;&gt;SharedModule</title>
<path fill="none" stroke="black" d="M116.12,-122.02C116.12,-139.37 116.12,-163 116.12,-163 116.12,-163 249.58,-163 249.58,-163"/>
<polygon fill="black" stroke="black" points="249.58,-166.5 259.58,-163 249.58,-159.5 249.58,-166.5"/>
</g>
</g>
</svg>
