<?xml version="1.0" encoding="UTF-8" standalone="no"?>
<!DOCTYPE svg PUBLIC "-//W3C//DTD SVG 1.1//EN"
 "http://www.w3.org/Graphics/SVG/1.1/DTD/svg11.dtd">
<!-- Generated by graphviz version 2.47.0 (20210316.0004)
 -->
<!-- Title: dependencies Pages: 1 -->
<svg width="1042pt" height="211pt"
 viewBox="0.00 0.00 1042.00 211.00" xmlns="http://www.w3.org/2000/svg" xmlns:xlink="http://www.w3.org/1999/xlink">
<g id="graph0" class="graph" transform="scale(1 1) rotate(0) translate(4 207)">
<title>dependencies</title>
<polygon fill="white" stroke="transparent" points="-4,4 -4,-207 1038,-207 1038,4 -4,4"/>
<text text-anchor="start" x="496.01" y="-42.4" font-family="sans-serif" font-weight="bold" font-size="14.00">Legend</text>
<polygon fill="#ffffb3" stroke="transparent" points="283,-10 283,-30 303,-30 303,-10 283,-10"/>
<text text-anchor="start" x="306.63" y="-15.4" font-family="sans-serif" font-size="14.00"> &#160;Declarations</text>
<polygon fill="#8dd3c7" stroke="transparent" points="396,-10 396,-30 416,-30 416,-10 396,-10"/>
<text text-anchor="start" x="419.73" y="-15.4" font-family="sans-serif" font-size="14.00"> &#160;Module</text>
<polygon fill="#80b1d3" stroke="transparent" points="482,-10 482,-30 502,-30 502,-10 482,-10"/>
<text text-anchor="start" x="505.78" y="-15.4" font-family="sans-serif" font-size="14.00"> &#160;Bootstrap</text>
<polygon fill="#fdb462" stroke="transparent" points="579,-10 579,-30 599,-30 599,-10 579,-10"/>
<text text-anchor="start" x="602.67" y="-15.4" font-family="sans-serif" font-size="14.00"> &#160;Providers</text>
<polygon fill="#fb8072" stroke="transparent" points="675,-10 675,-30 695,-30 695,-10 675,-10"/>
<text text-anchor="start" x="698.73" y="-15.4" font-family="sans-serif" font-size="14.00"> &#160;Exports</text>
<g id="clust1" class="cluster">
<title>cluster_ListModule</title>
<polygon fill="none" stroke="black" stroke-dasharray="1,5" points="8,-70 8,-195 1026,-195 1026,-70 8,-70"/>
</g>
<g id="clust8" class="cluster">
<title>cluster_ListModule_imports</title>
<polygon fill="none" stroke="black" points="760,-78 760,-130 1018,-130 1018,-78 760,-78"/>
</g>
<g id="clust2" class="cluster">
<title>cluster_ListModule_declarations</title>
<polygon fill="none" stroke="black" points="16,-78 16,-130 752,-130 752,-78 16,-78"/>
</g>
<!-- ListComponent -->
<g id="node1" class="node">
<title>ListComponent</title>
<polygon fill="#ffffb3" stroke="black" points="743.61,-122 640.39,-122 640.39,-86 743.61,-86 743.61,-122"/>
<text text-anchor="middle" x="692" y="-99.8" font-family="Times,serif" font-size="14.00">ListComponent</text>
</g>
<!-- ListModule -->
<g id="node6" class="node">
<title>ListModule</title>
<polygon fill="#8dd3c7" stroke="black" points="599.83,-187 596.83,-191 575.83,-191 572.83,-187 518.17,-187 518.17,-151 599.83,-151 599.83,-187"/>
<text text-anchor="middle" x="559" y="-164.8" font-family="Times,serif" font-size="14.00">ListModule</text>
</g>
<!-- ListComponent&#45;&gt;ListModule -->
<g id="edge1" class="edge">
<title>ListComponent&#45;&gt;ListModule</title>
<path fill="none" stroke="black" d="M692,-122.03C692,-138.4 692,-160 692,-160 692,-160 609.99,-160 609.99,-160"/>
<polygon fill="black" stroke="black" points="609.99,-156.5 599.99,-160 609.99,-163.5 609.99,-156.5"/>
</g>
<!-- ListEditComponent -->
<g id="node2" class="node">
<title>ListEditComponent</title>
<polygon fill="#ffffb3" stroke="black" points="622.45,-122 495.55,-122 495.55,-86 622.45,-86 622.45,-122"/>
<text text-anchor="middle" x="559" y="-99.8" font-family="Times,serif" font-size="14.00">ListEditComponent</text>
</g>
<!-- ListEditComponent&#45;&gt;ListModule -->
<g id="edge2" class="edge">
<title>ListEditComponent&#45;&gt;ListModule</title>
<path fill="none" stroke="black" d="M559,-122.11C559,-122.11 559,-140.99 559,-140.99"/>
<polygon fill="black" stroke="black" points="555.5,-140.99 559,-150.99 562.5,-140.99 555.5,-140.99"/>
</g>
<!-- ListHomeComponent -->
<g id="node3" class="node">
<title>ListHomeComponent</title>
<polygon fill="#ffffb3" stroke="black" points="477.82,-122 340.18,-122 340.18,-86 477.82,-86 477.82,-122"/>
<text text-anchor="middle" x="409" y="-99.8" font-family="Times,serif" font-size="14.00">ListHomeComponent</text>
</g>
<!-- ListHomeComponent&#45;&gt;ListModule -->
<g id="edge3" class="edge">
<title>ListHomeComponent&#45;&gt;ListModule</title>
<path fill="none" stroke="black" d="M409,-122.03C409,-138.4 409,-160 409,-160 409,-160 508.01,-160 508.01,-160"/>
<polygon fill="black" stroke="black" points="508.01,-163.5 518.01,-160 508.01,-156.5 508.01,-163.5"/>
</g>
<!-- ListItemDialogComponent -->
<g id="node4" class="node">
<title>ListItemDialogComponent</title>
<polygon fill="#ffffb3" stroke="black" points="322.37,-122 155.63,-122 155.63,-86 322.37,-86 322.37,-122"/>
<text text-anchor="middle" x="239" y="-99.8" font-family="Times,serif" font-size="14.00">ListItemDialogComponent</text>
</g>
<!-- ListItemDialogComponent&#45;&gt;ListModule -->
<g id="edge4" class="edge">
<title>ListItemDialogComponent&#45;&gt;ListModule</title>
<path fill="none" stroke="black" d="M239,-122.11C239,-141.34 239,-169 239,-169 239,-169 508.15,-169 508.15,-169"/>
<polygon fill="black" stroke="black" points="508.15,-172.5 518.15,-169 508.15,-165.5 508.15,-172.5"/>
</g>
<!-- ShareComponent -->
<g id="node5" class="node">
<title>ShareComponent</title>
<polygon fill="#ffffb3" stroke="black" points="137.7,-122 24.3,-122 24.3,-86 137.7,-86 137.7,-122"/>
<text text-anchor="middle" x="81" y="-99.8" font-family="Times,serif" font-size="14.00">ShareComponent</text>
</g>
<!-- ShareComponent&#45;&gt;ListModule -->
<g id="edge5" class="edge">
<title>ShareComponent&#45;&gt;ListModule</title>
<path fill="none" stroke="black" d="M81,-122.29C81,-144.21 81,-178 81,-178 81,-178 508.25,-178 508.25,-178"/>
<polygon fill="black" stroke="black" points="508.25,-181.5 518.25,-178 508.25,-174.5 508.25,-181.5"/>
</g>
<!-- ListRoutingModule -->
<g id="node7" class="node">
<title>ListRoutingModule</title>
<polygon fill="#8dd3c7" stroke="black" points="1010.45,-122 1007.45,-126 986.45,-126 983.45,-122 883.55,-122 883.55,-86 1010.45,-86 1010.45,-122"/>
<text text-anchor="middle" x="947" y="-99.8" font-family="Times,serif" font-size="14.00">ListRoutingModule</text>
</g>
<!-- ListRoutingModule&#45;&gt;ListModule -->
<g id="edge6" class="edge">
<title>ListRoutingModule&#45;&gt;ListModule</title>
<path fill="none" stroke="black" d="M947,-122.29C947,-144.21 947,-178 947,-178 947,-178 609.79,-178 609.79,-178"/>
<polygon fill="black" stroke="black" points="609.79,-174.5 599.79,-178 609.79,-181.5 609.79,-174.5"/>
</g>
<!-- SharedModule -->
<g id="node8" class="node">
<title>SharedModule</title>
<polygon fill="#8dd3c7" stroke="black" points="866.42,-122 863.42,-126 842.42,-126 839.42,-122 767.58,-122 767.58,-86 866.42,-86 866.42,-122"/>
<text text-anchor="middle" x="817" y="-99.8" font-family="Times,serif" font-size="14.00">SharedModule</text>
</g>
<!-- SharedModule&#45;&gt;ListModule -->
<g id="edge7" class="edge">
<title>SharedModule&#45;&gt;ListModule</title>
<path fill="none" stroke="black" d="M817,-122.11C817,-141.34 817,-169 817,-169 817,-169 609.88,-169 609.88,-169"/>
<polygon fill="black" stroke="black" points="609.88,-165.5 599.88,-169 609.88,-172.5 609.88,-165.5"/>
</g>
</g>
</svg>
