<?xml version="1.0" encoding="UTF-8" standalone="no"?>
<!DOCTYPE svg PUBLIC "-//W3C//DTD SVG 1.1//EN"
 "http://www.w3.org/Graphics/SVG/1.1/DTD/svg11.dtd">
<!-- Generated by graphviz version 2.47.0 (20210316.0004)
 -->
<!-- Title: dependencies Pages: 1 -->
<svg width="820pt" height="211pt"
 viewBox="0.00 0.00 820.00 211.00" xmlns="http://www.w3.org/2000/svg" xmlns:xlink="http://www.w3.org/1999/xlink">
<g id="graph0" class="graph" transform="scale(1 1) rotate(0) translate(4 207)">
<title>dependencies</title>
<polygon fill="white" stroke="transparent" points="-4,4 -4,-207 816,-207 816,4 -4,4"/>
<text text-anchor="start" x="385.01" y="-42.4" font-family="sans-serif" font-weight="bold" font-size="14.00">Legend</text>
<polygon fill="#ffffb3" stroke="transparent" points="172,-10 172,-30 192,-30 192,-10 172,-10"/>
<text text-anchor="start" x="195.63" y="-15.4" font-family="sans-serif" font-size="14.00"> &#160;Declarations</text>
<polygon fill="#8dd3c7" stroke="transparent" points="285,-10 285,-30 305,-30 305,-10 285,-10"/>
<text text-anchor="start" x="308.73" y="-15.4" font-family="sans-serif" font-size="14.00"> &#160;Module</text>
<polygon fill="#80b1d3" stroke="transparent" points="371,-10 371,-30 391,-30 391,-10 371,-10"/>
<text text-anchor="start" x="394.78" y="-15.4" font-family="sans-serif" font-size="14.00"> &#160;Bootstrap</text>
<polygon fill="#fdb462" stroke="transparent" points="468,-10 468,-30 488,-30 488,-10 468,-10"/>
<text text-anchor="start" x="491.67" y="-15.4" font-family="sans-serif" font-size="14.00"> &#160;Providers</text>
<polygon fill="#fb8072" stroke="transparent" points="564,-10 564,-30 584,-30 584,-10 564,-10"/>
<text text-anchor="start" x="587.73" y="-15.4" font-family="sans-serif" font-size="14.00"> &#160;Exports</text>
<g id="clust1" class="cluster">
<title>cluster_ScannerModule</title>
<polygon fill="none" stroke="black" stroke-dasharray="1,5" points="8,-70 8,-195 804,-195 804,-70 8,-70"/>
</g>
<g id="clust2" class="cluster">
<title>cluster_ScannerModule_declarations</title>
<polygon fill="none" stroke="black" points="472,-78 472,-130 796,-130 796,-78 472,-78"/>
</g>
<g id="clust5" class="cluster">
<title>cluster_ScannerModule_imports</title>
<polygon fill="none" stroke="black" points="16,-78 16,-130 464,-130 464,-78 16,-78"/>
</g>
<!-- ScannerComponent -->
<g id="node1" class="node">
<title>ScannerComponent</title>
<polygon fill="#ffffb3" stroke="black" points="788.42,-122 661.58,-122 661.58,-86 788.42,-86 788.42,-122"/>
<text text-anchor="middle" x="725" y="-99.8" font-family="Times,serif" font-size="14.00">ScannerComponent</text>
</g>
<!-- ScannerModule -->
<g id="node3" class="node">
<title>ScannerModule</title>
<polygon fill="#8dd3c7" stroke="black" points="434.14,-187 431.14,-191 410.14,-191 407.14,-187 329.86,-187 329.86,-151 434.14,-151 434.14,-187"/>
<text text-anchor="middle" x="382" y="-164.8" font-family="Times,serif" font-size="14.00">ScannerModule</text>
</g>
<!-- ScannerComponent&#45;&gt;ScannerModule -->
<g id="edge1" class="edge">
<title>ScannerComponent&#45;&gt;ScannerModule</title>
<path fill="none" stroke="black" d="M725,-122.28C725,-143.32 725,-175 725,-175 725,-175 444.47,-175 444.47,-175"/>
<polygon fill="black" stroke="black" points="444.47,-171.5 434.47,-175 444.47,-178.5 444.47,-171.5"/>
</g>
<!-- ScannerDialogComponent -->
<g id="node2" class="node">
<title>ScannerDialogComponent</title>
<polygon fill="#ffffb3" stroke="black" points="644.02,-122 479.98,-122 479.98,-86 644.02,-86 644.02,-122"/>
<text text-anchor="middle" x="562" y="-99.8" font-family="Times,serif" font-size="14.00">ScannerDialogComponent</text>
</g>
<!-- ScannerDialogComponent&#45;&gt;ScannerModule -->
<g id="edge2" class="edge">
<title>ScannerDialogComponent&#45;&gt;ScannerModule</title>
<path fill="none" stroke="black" d="M562,-122.02C562,-139.37 562,-163 562,-163 562,-163 444.55,-163 444.55,-163"/>
<polygon fill="black" stroke="black" points="444.55,-159.5 434.55,-163 444.55,-166.5 444.55,-159.5"/>
</g>
<!-- OpenFoodFactsModule -->
<g id="node4" class="node">
<title>OpenFoodFactsModule</title>
<polygon fill="#8dd3c7" stroke="black" points="456.2,-122 453.2,-126 432.2,-126 429.2,-122 307.8,-122 307.8,-86 456.2,-86 456.2,-122"/>
<text text-anchor="middle" x="382" y="-99.8" font-family="Times,serif" font-size="14.00">OpenFoodFactsModule</text>
</g>
<!-- OpenFoodFactsModule&#45;&gt;ScannerModule -->
<g id="edge3" class="edge">
<title>OpenFoodFactsModule&#45;&gt;ScannerModule</title>
<path fill="none" stroke="black" d="M382,-122.11C382,-122.11 382,-140.99 382,-140.99"/>
<polygon fill="black" stroke="black" points="378.5,-140.99 382,-150.99 385.5,-140.99 378.5,-140.99"/>
</g>
<!-- ScannerRoutingModule -->
<g id="node5" class="node">
<title>ScannerRoutingModule</title>
<polygon fill="#8dd3c7" stroke="black" points="289.75,-122 286.75,-126 265.75,-126 262.75,-122 140.25,-122 140.25,-86 289.75,-86 289.75,-122"/>
<text text-anchor="middle" x="215" y="-99.8" font-family="Times,serif" font-size="14.00">ScannerRoutingModule</text>
</g>
<!-- ScannerRoutingModule&#45;&gt;ScannerModule -->
<g id="edge4" class="edge">
<title>ScannerRoutingModule&#45;&gt;ScannerModule</title>
<path fill="none" stroke="black" d="M215,-122.02C215,-139.37 215,-163 215,-163 215,-163 319.62,-163 319.62,-163"/>
<polygon fill="black" stroke="black" points="319.62,-166.5 329.62,-163 319.62,-159.5 319.62,-166.5"/>
</g>
<!-- SharedModule -->
<g id="node6" class="node">
<title>SharedModule</title>
<polygon fill="#8dd3c7" stroke="black" points="122.42,-122 119.42,-126 98.42,-126 95.42,-122 23.58,-122 23.58,-86 122.42,-86 122.42,-122"/>
<text text-anchor="middle" x="73" y="-99.8" font-family="Times,serif" font-size="14.00">SharedModule</text>
</g>
<!-- SharedModule&#45;&gt;ScannerModule -->
<g id="edge5" class="edge">
<title>SharedModule&#45;&gt;ScannerModule</title>
<path fill="none" stroke="black" d="M73,-122.28C73,-143.32 73,-175 73,-175 73,-175 319.58,-175 319.58,-175"/>
<polygon fill="black" stroke="black" points="319.58,-178.5 329.58,-175 319.58,-171.5 319.58,-178.5"/>
</g>
</g>
</svg>
